<svg id="Слой_1" data-name="Слой 1" xmlns="http://www.w3.org/2000/svg" viewBox="0 0 112.55 86.48"><defs><style>.cls-1{fill:#748417;}.cls-2{fill:#023307;}.cls-3{fill:#c00022;}.cls-4{fill:#2e6439;}.cls-5{fill:#fd8f1e;}.cls-6{fill:#d77a1a;}.cls-7{fill:#fda449;}.cls-8{fill:#90001a;}.cls-9{fill:#860018;}.cls-10{fill:#a3001d;}.cls-11{fill:#c92442;}</style></defs><title>border</title><path class="cls-1" d="M9.77,45.44s-.6-16.1-8-11.29C1.81,34.15-5.4,38.08,9.77,45.44Z"/><path class="cls-2" d="M19.18,48.58l-3.69-.08-3.44,0a38.31,38.31,0,0,0-3.34-5.31c-2.06-2.92-3.88-5.17-4.08-5S5.94,40.73,8,43.64a43.06,43.06,0,0,0,3.76,4.82l-9.87-.1-8.59,0A43.59,43.59,0,0,0-10,43.15c-2-2.92-3.88-5.17-4.08-5s1.32,2.61,3.37,5.52a50.65,50.65,0,0,0,3.61,4.67c-5.54,0-11.71-.05-18.33-.06a44.72,44.72,0,0,0-3.25-5.1c-2.06-2.92-3.88-5.17-4.08-5s1.32,2.61,3.37,5.52a52.31,52.31,0,0,0,3.55,4.61l-17.14,0H-44.1a45.26,45.26,0,0,0-3.25-5.08c-2-2.92-3.88-5.17-4.07-5s1.31,2.61,3.37,5.52a51.2,51.2,0,0,0,3.53,4.59c-6.36,0-12.49,0-18.26,0A43.15,43.15,0,0,0-66,43.15c-2.06-2.92-3.88-5.17-4.07-5s1.31,2.61,3.36,5.52a52.87,52.87,0,0,0,3.56,4.62c-6.64,0-12.8,0-18.25.06a42.39,42.39,0,0,0-3.28-5.17c-2.06-2.92-3.88-5.17-4.08-5s1.31,2.61,3.37,5.52a48.42,48.42,0,0,0,3.62,4.68l-6,0-13.59.14-3.69.08a7.16,7.16,0,0,0-1.29.09,6.76,6.76,0,0,0,1.29.08l3.69.08L-90,49a46.17,46.17,0,0,0-3.68,4.74c-2.06,2.91-3.56,5.39-3.37,5.53s2-2.12,4.08-5A40.71,40.71,0,0,0-89.66,49l1.89,0,15.4.08A52,52,0,0,0-76,53.69c-2.05,2.91-3.56,5.39-3.36,5.53s2-2.12,4.07-5A45.27,45.27,0,0,0-72,49.05l17.28,0a49.88,49.88,0,0,0-3.54,4.6c-2.06,2.91-3.57,5.39-3.37,5.53s2-2.12,4.08-5a45.33,45.33,0,0,0,3.24-5.1H-37a52.76,52.76,0,0,0-3.54,4.59c-2,2.91-3.56,5.39-3.37,5.53s2-2.12,4.08-5a45.49,45.49,0,0,0,3.24-5.09l17.33,0a51.33,51.33,0,0,0-3.57,4.62c-2.05,2.91-3.56,5.39-3.36,5.53s2-2.12,4.07-5a43.68,43.68,0,0,0,3.26-5.13c6.39,0,12.24,0,17.38-.07a49.4,49.4,0,0,0-3.63,4.7c-2.06,2.91-3.56,5.39-3.37,5.53s2-2.12,4.08-5A43,43,0,0,0-1.1,49l3,0,13.6-.14,3.69-.08a6.76,6.76,0,0,0,1.29-.08A7.16,7.16,0,0,0,19.18,48.58Z"/><path class="cls-3" d="M3,53.52a1.91,1.91,0,1,1-1.91,1.91A1.92,1.92,0,0,1,3,53.52Z"/><path class="cls-4" d="M37.66,58.37S-3,44.06,19.76,43.16c0,0,3.3,0-1.53-3.17,0,0-20.86-16.71-2-9,0,0,3.75.9-1.5-3.4,0,0-13.49-10.69-3-8,0,0,3.29,1.25-1.23-8.12,0,0-6.48-19.19,7.74.19,0,0,2.16,4.76,3.54,2.09,0,0,4.2-12.16,4.22,5.68,0,0-2.15,8.59,1.19,3.43,0,0,4.35-9.6,4.82,7.29,0,0,0,8.83,3,4.33C35,34.45,44.5,22.89,37.66,58.37Z"/><path class="cls-2" d="M27.41,39.51c.06-.44.12-.88.18-1.3.1-.78.19-1.52.28-2.23.16-1.43.31-2.71.43-3.8a14.91,14.91,0,0,0,.18-3.52,14.3,14.3,0,0,0-.79,3.44c-.17,1.08-.38,2.35-.61,3.77-.11.71-.22,1.46-.33,2.23a.17.17,0,0,0,0,.07c-1.84-3.61-3.51-7-5-10.1l.09-.67.12-1c.08-.66.15-1.3.22-1.91.13-1.21.24-2.3.32-3.22a10.78,10.78,0,0,0,.08-3,10,10,0,0,0-.69,2.92c-.15.91-.33,2-.5,3.2-.09.61-.18,1.24-.27,1.9,0,.12,0,.24-.05.36-.78-1.65-1.5-3.19-2.14-4.58-1.25-2.69-2.25-4.87-3-6.39a14.37,14.37,0,0,0-1.16-2.31,13.22,13.22,0,0,0,.85,2.44c.6,1.55,1.51,3.78,2.7,6.51.62,1.44,1.33,3,2.1,4.74l-2.66-1.51-2.7-1.73c-.75-.53-1.37-.94-1.81-1.22s-.68-.43-.72-.38.14.27.51.64.94.85,1.66,1.45,1.63,1.2,2.64,1.91c.51.35,1.07.66,1.65,1l2,1.19c1.48,3.21,3.19,6.79,5.09,10.56h0a24.9,24.9,0,0,1-7.59-3.32c-1.82-1.16-2.85-2-2.93-1.92s.82,1.11,2.58,2.42a21.31,21.31,0,0,0,7.74,3.66l.75.18h0c.56,1.09,1.12,2.19,1.7,3.3,1.52,2.91,3.05,5.67,4.54,8.26a47.11,47.11,0,0,0-9.11-3.79c-2.5-.74-4.11-1-4.14-.84a40.88,40.88,0,0,0,3.95,1.42,63,63,0,0,1,9.16,4.12l.8.44.18.09c2.35,4,4.59,7.49,6.57,10.27,1.78,2.4,3.21,4.34,4.34,5.57a14.52,14.52,0,0,0,1.76,1.89,15.11,15.11,0,0,0-1.5-2.1c-1-1.29-2.39-3.28-4.1-5.71-1.89-2.81-4.07-6.34-6.37-10.33.09-.53.17-1,.25-1.57.15-.91.29-1.8.43-2.64.31-1.68.58-3.2.81-4.48a21.42,21.42,0,0,0,.78-4.12,19.32,19.32,0,0,0-1.37,4c-.3,1.27-.65,2.78-1,4.46-.16.85-.32,1.74-.49,2.66,0,.17-.05.35-.09.52-1.51-2.66-3.07-5.52-4.63-8.51C28.56,41.74,28,40.62,27.41,39.51Z"/><path class="cls-1" d="M102.94,45.44s.6-16.1,8-11.29C110.9,34.15,118.11,38.08,102.94,45.44Z"/><path class="cls-2" d="M93.54,48.58l3.69-.08,3.44,0A37.3,37.3,0,0,1,104,43.15c2.06-2.92,3.88-5.17,4.08-5s-1.32,2.61-3.37,5.52A44.32,44.32,0,0,1,101,48.46l9.86-.1,8.6,0a42.25,42.25,0,0,1,3.28-5.16c2-2.92,3.87-5.17,4.07-5s-1.31,2.61-3.37,5.52a48.91,48.91,0,0,1-3.61,4.67c5.54,0,11.72-.05,18.34-.06a44.72,44.72,0,0,1,3.25-5.1c2.05-2.92,3.88-5.17,4.07-5s-1.31,2.61-3.36,5.52a51.9,51.9,0,0,1-3.56,4.61l17.15,0h1.14a44.72,44.72,0,0,1,3.24-5.08c2.06-2.92,3.88-5.17,4.08-5s-1.31,2.61-3.37,5.52a52.76,52.76,0,0,1-3.54,4.59c6.36,0,12.49,0,18.26,0a43.66,43.66,0,0,1,3.26-5.11c2.05-2.92,3.88-5.17,4.07-5s-1.31,2.61-3.37,5.52a49.14,49.14,0,0,1-3.56,4.62c6.65,0,12.8,0,18.26.06a42.39,42.39,0,0,1,3.28-5.17c2-2.92,3.88-5.17,4.07-5s-1.31,2.61-3.36,5.52a50.11,50.11,0,0,1-3.62,4.68l6,0,13.58.14,3.7.08a7.3,7.3,0,0,1,1.29.09,6.88,6.88,0,0,1-1.29.08l-3.7.08L202.71,49a49.28,49.28,0,0,1,3.68,4.74c2.05,2.91,3.56,5.39,3.36,5.53s-2-2.12-4.07-5A41.2,41.2,0,0,1,202.37,49l-1.88,0-15.4.08a50.54,50.54,0,0,1,3.58,4.64c2.06,2.91,3.57,5.39,3.37,5.53s-2-2.12-4.08-5a43.31,43.31,0,0,1-3.26-5.14l-17.29,0a51.36,51.36,0,0,1,3.55,4.6c2,2.91,3.56,5.39,3.37,5.53s-2-2.12-4.08-5a45.88,45.88,0,0,1-3.25-5.1H149.71a54.87,54.87,0,0,1,3.54,4.59c2.05,2.91,3.56,5.39,3.36,5.53s-2-2.12-4.07-5a46,46,0,0,1-3.25-5.09l-17.33,0a47.81,47.81,0,0,1,3.57,4.62c2.06,2.91,3.56,5.39,3.37,5.53s-2-2.12-4.08-5a43.17,43.17,0,0,1-3.25-5.13c-6.39,0-12.25,0-17.39-.07a49,49,0,0,1,3.64,4.7c2.05,2.91,3.56,5.39,3.36,5.53s-2-2.12-4.07-5a41.73,41.73,0,0,1-3.29-5.2l-3,0-13.59-.14-3.69-.08a6.76,6.76,0,0,1-1.29-.08A7.16,7.16,0,0,1,93.54,48.58Z"/><path class="cls-3" d="M109.69,53.52a1.91,1.91,0,1,0,1.9,1.91A1.91,1.91,0,0,0,109.69,53.52Z"/><path class="cls-4" d="M75.06,58.37S115.68,44.06,93,43.16c0,0-3.29,0,1.54-3.17,0,0,20.85-16.71,2-9,0,0-3.76.9,1.5-3.4,0,0,13.49-10.69,3-8,0,0-3.29,1.25,1.22-8.12,0,0,6.49-19.19-7.74.19,0,0-2.15,4.76-3.53,2.09,0,0-4.21-12.16-4.23,5.68,0,0,2.16,8.59-1.19,3.43,0,0-4.34-9.6-4.81,7.29,0,0,0,8.83-3,4.33C77.67,34.45,68.21,22.89,75.06,58.37Z"/><path class="cls-2" d="M85.3,39.51c-.06-.44-.11-.88-.17-1.3-.1-.78-.19-1.52-.29-2.23-.15-1.43-.3-2.71-.42-3.8a14.27,14.27,0,0,1-.18-3.52A14.06,14.06,0,0,1,85,32.1c.18,1.08.39,2.35.62,3.77.1.71.21,1.46.33,2.23,0,0,0,0,0,.07,1.83-3.61,3.5-7,5-10.1l-.08-.67c0-.34-.09-.67-.12-1-.08-.66-.15-1.3-.22-1.91-.14-1.21-.25-2.3-.32-3.22a10.32,10.32,0,0,1-.08-3,10.25,10.25,0,0,1,.68,2.92c.16.91.33,2,.51,3.2.08.61.17,1.24.27,1.9,0,.12,0,.24,0,.36.78-1.65,1.5-3.19,2.15-4.58l3-6.39a14.37,14.37,0,0,1,1.16-2.31A15.5,15.5,0,0,1,97,15.81c-.61,1.55-1.52,3.78-2.7,6.51-.63,1.44-1.33,3-2.1,4.74l2.65-1.51,2.71-1.73c.75-.53,1.37-.94,1.8-1.22s.68-.43.72-.38-.14.27-.5.64-1,.85-1.66,1.45-1.64,1.2-2.64,1.91c-.51.35-1.08.66-1.65,1l-2,1.19C90.15,31.62,88.44,35.2,86.54,39h0a25,25,0,0,0,7.59-3.32,33.3,33.3,0,0,1,2.93-1.92,9.13,9.13,0,0,1-2.59,2.42,21.31,21.31,0,0,1-7.74,3.66L86,40h0c-.56,1.09-1.12,2.19-1.71,3.3-1.52,2.91-3,5.67-4.53,8.26a46.8,46.8,0,0,1,9.1-3.79c2.51-.74,4.12-1,4.14-.84a39.92,39.92,0,0,1-3.94,1.42,62.54,62.54,0,0,0-9.16,4.12l-.81.44-.18.09c-2.34,4-4.59,7.49-6.56,10.27-1.78,2.4-3.21,4.34-4.34,5.57a15.44,15.44,0,0,1-1.76,1.89,15.45,15.45,0,0,1,1.49-2.1c1-1.29,2.4-3.28,4.1-5.71,1.9-2.81,4.07-6.34,6.37-10.33L78,51l-.44-2.64c-.3-1.68-.58-3.2-.81-4.48A20.83,20.83,0,0,1,76,39.76a20.08,20.08,0,0,1,1.37,4c.29,1.27.65,2.78,1,4.46.15.85.32,1.74.49,2.66,0,.17,0,.35.08.52,1.51-2.66,3.07-5.52,4.64-8.51Z"/><path class="cls-5" d="M63,47.05a3,3,0,1,1-3.89-1.52A3,3,0,0,1,63,47.05Z"/><path class="cls-6" d="M62.36,50.32a3,3,0,0,1-.9.62,3,3,0,0,1-2.36-5.42,2.67,2.67,0,0,1,1.07-.23,2.94,2.94,0,0,0,2.19,5Z"/><path class="cls-5" d="M90.43,66.54A36.19,36.19,0,0,1,68,82.72,37,37,0,0,1,59.13,84a13.71,13.71,0,0,0,1.38-5.8h0a17.1,17.1,0,0,0-1.62-7.63l-.06-.13c-.09-.18-.2-.36-.3-.55-7.64-14.3-1.19-19.38,1.26-20.72a7.28,7.28,0,0,1,.84-.38c9-5.49,15.33,5.13,17.75,10.29.25.53.46,1,.62,1.38.31.76.48,1.22.48,1.22A10.84,10.84,0,0,0,85,65.85,13.13,13.13,0,0,0,90.43,66.54Z"/><path class="cls-3" d="M85,65.85A90.13,90.13,0,0,1,67.55,76a19.2,19.2,0,0,0-.94-2.7c-.7-1.61-1.43-3.13-2.21-4.64A84.65,84.65,0,0,0,79,60.44c.31.76.48,1.22.48,1.22A10.84,10.84,0,0,0,85,65.85Z"/><path class="cls-7" d="M71.11,51.44c-1.85-2-7.16-3.07-6.91,1.08a6.08,6.08,0,0,0,4.39,4.91C72.52,58.24,73.41,53.93,71.11,51.44Z"/><path class="cls-8" d="M66.61,73.25a19.2,19.2,0,0,1,.94,2.7,37.42,37.42,0,0,1-7,2.24h0a17.1,17.1,0,0,0-1.62-7.63,41.54,41.54,0,0,0,5.51-1.94C65.18,70.12,65.91,71.64,66.61,73.25Z"/><path class="cls-6" d="M60.51,78.19a37.42,37.42,0,0,0,7-2.24,16.39,16.39,0,0,1,.58,5.34c0,.45-.06.94-.11,1.43A37,37,0,0,1,59.13,84,13.71,13.71,0,0,0,60.51,78.19Z"/><path class="cls-6" d="M59.79,49.15A8.08,8.08,0,0,0,58.88,52a16,16,0,0,0,.95,7.92,35.93,35.93,0,0,0,3.39,6.51c.41.72.8,1.45,1.18,2.18a41.54,41.54,0,0,1-5.51,1.94l-.06-.13c-.09-.18-.2-.36-.3-.55C50.89,55.57,57.34,50.49,59.79,49.15Z"/><path class="cls-5" d="M49.73,46.89a3,3,0,1,0,3.89-1.53A2.94,2.94,0,0,0,49.73,46.89Z"/><path class="cls-6" d="M50.36,50.15a2.59,2.59,0,0,0,.9.62,3,3,0,0,0,2.36-5.42,2.67,2.67,0,0,0-1.07-.23,2.94,2.94,0,0,1-2.19,5Z"/><path class="cls-5" d="M22.29,66.38A36.17,36.17,0,0,0,44.7,82.55a37.33,37.33,0,0,0,8.89,1.28A14,14,0,0,1,52.2,78h0a16.86,16.86,0,0,1,1.62-7.62l.05-.14c.1-.18.21-.36.3-.55C61.83,55.4,55.37,50.32,52.92,49a7.73,7.73,0,0,0-.83-.38c-9-5.49-15.34,5.14-17.75,10.29-.25.53-.46,1-.62,1.38-.32.76-.49,1.22-.49,1.22a10.48,10.48,0,0,1-4.18,3.65,13,13,0,0,1-1.34.54A13.25,13.25,0,0,1,22.29,66.38Z"/><path class="cls-3" d="M27.71,65.68a90.12,90.12,0,0,0,17.45,10.1,19.25,19.25,0,0,1,1-2.7c.7-1.61,1.42-3.13,2.21-4.63a84.45,84.45,0,0,1-14.6-8.18c-.32.76-.49,1.22-.49,1.22a10.48,10.48,0,0,1-4.18,3.65A13,13,0,0,1,27.71,65.68Z"/><path class="cls-7" d="M44.12,57.26c-3.92.81-4.81-3.5-2.52-6,1.85-2,7.16-3.07,6.91,1.07A6.08,6.08,0,0,1,44.12,57.26Z"/><path class="cls-8" d="M46.11,73.08a19.25,19.25,0,0,0-1,2.7,37.65,37.65,0,0,0,7,2.24h0a16.86,16.86,0,0,1,1.62-7.62,44.08,44.08,0,0,1-5.51-1.94C47.53,70,46.81,71.47,46.11,73.08Z"/><path class="cls-6" d="M52.2,78a37.65,37.65,0,0,1-7-2.24,16.42,16.42,0,0,0-.58,5.34c0,.45.06.94.12,1.43a37.33,37.33,0,0,0,8.89,1.28A14,14,0,0,1,52.2,78Z"/><path class="cls-6" d="M52.92,49a7.88,7.88,0,0,1,.92,2.86,16.07,16.07,0,0,1-1,7.91,36.24,36.24,0,0,1-3.39,6.51c-.41.72-.81,1.45-1.18,2.19a44.08,44.08,0,0,0,5.51,1.94l.05-.14c.1-.18.21-.36.3-.55C61.83,55.4,55.37,50.32,52.92,49Z"/><path class="cls-3" d="M62.69,38a7.74,7.74,0,0,1-.14.84A6.71,6.71,0,0,1,61,41.9a7.13,7.13,0,0,1-4.92,2.21l-.8,0a8.42,8.42,0,0,1-2.33-.31,6.56,6.56,0,0,1-3.93-3,7.41,7.41,0,0,1-.78-1.78,6.9,6.9,0,0,1-.16-3.17,6.68,6.68,0,0,1,.76-2.21A6.83,6.83,0,0,1,50.09,32l.56-.5a7.92,7.92,0,0,1,1.55-.95,7.67,7.67,0,0,1,6.25-.37,6.36,6.36,0,0,1,2.75,2.19A7.84,7.84,0,0,1,62.45,35a8.52,8.52,0,0,1,.27,1.69A7.46,7.46,0,0,1,62.69,38Z"/><path class="cls-9" d="M57.91,33.72c1.06.47,1.72-.67,1.16-1.52-.42-.63-1.91-1.54-2.17-.32A2.2,2.2,0,0,0,57.91,33.72Z"/><path class="cls-10" d="M62.69,38a7.74,7.74,0,0,1-.14.84A6.71,6.71,0,0,1,61,41.9a7.13,7.13,0,0,1-4.92,2.21l-.8,0a8.42,8.42,0,0,1-2.33-.31,6.56,6.56,0,0,1-3.93-3,7.41,7.41,0,0,1-.78-1.78,6.9,6.9,0,0,1-.16-3.17,6.68,6.68,0,0,1,.76-2.21A6.83,6.83,0,0,1,50.09,32a7.85,7.85,0,0,0,2.67,5.52C55.16,39.6,59.74,39.64,62.69,38Z"/><path class="cls-11" d="M54.66,35.72c2.64-.66-.47-4.91-1.87-3.57S52.88,36.17,54.66,35.72Z"/><path class="cls-3" d="M69.74,47.77a5.67,5.67,0,0,1-.15.84A6.56,6.56,0,0,1,68,51.7a7.12,7.12,0,0,1-4.91,2.2l-.8,0A8.44,8.44,0,0,1,60,53.62a6.6,6.6,0,0,1-2.51-1.31A6.88,6.88,0,0,1,56,50.64a7.61,7.61,0,0,1-.77-1.78,7.17,7.17,0,0,1,.59-5.37,6.74,6.74,0,0,1,1.28-1.74c.18-.17.36-.34.56-.5a8.15,8.15,0,0,1,1.54-1,7.69,7.69,0,0,1,6.26-.37,6.39,6.39,0,0,1,2.74,2.19,7.67,7.67,0,0,1,1.26,2.62,8,8,0,0,1,.26,1.69A8.51,8.51,0,0,1,69.74,47.77Z"/><path class="cls-9" d="M65,43.51C66,44,66.68,42.85,66.11,42c-.41-.63-1.91-1.54-2.16-.32A2.19,2.19,0,0,0,65,43.51Z"/><path class="cls-10" d="M69.74,47.77a5.67,5.67,0,0,1-.15.84A6.56,6.56,0,0,1,68,51.7a7.12,7.12,0,0,1-4.91,2.2l-.8,0A8.44,8.44,0,0,1,60,53.62a6.6,6.6,0,0,1-2.51-1.31A6.88,6.88,0,0,1,56,50.64a7.61,7.61,0,0,1-.77-1.78,7.17,7.17,0,0,1,.59-5.37,6.74,6.74,0,0,1,1.28-1.74,7.84,7.84,0,0,0,2.66,5.52C62.21,49.39,66.78,49.43,69.74,47.77Z"/><path class="cls-11" d="M61.7,45.52c2.65-.67-.46-4.92-1.86-3.58S59.93,46,61.7,45.52Z"/><path class="cls-3" d="M57.68,48.29a8.17,8.17,0,0,1-.14.84A6.71,6.71,0,0,1,56,52.21a7.08,7.08,0,0,1-4.92,2.2l-.8,0a8.43,8.43,0,0,1-2.33-.3,6.73,6.73,0,0,1-3.94-3,7.79,7.79,0,0,1-.77-1.78A7.08,7.08,0,0,1,43,46.2a6.88,6.88,0,0,1,.77-2.2,7.06,7.06,0,0,1,1.27-1.74c.18-.17.36-.33.56-.49a7.24,7.24,0,0,1,1.54-1,7.66,7.66,0,0,1,6.26-.38,6.49,6.49,0,0,1,2.74,2.2,7.67,7.67,0,0,1,1.26,2.62,8.53,8.53,0,0,1,.27,1.68A7.55,7.55,0,0,1,57.68,48.29Z"/><path class="cls-9" d="M52.9,44c1.06.46,1.72-.67,1.15-1.52-.41-.63-1.9-1.54-2.16-.33A2.2,2.2,0,0,0,52.9,44Z"/><path class="cls-10" d="M57.68,48.29a8.17,8.17,0,0,1-.14.84A6.71,6.71,0,0,1,56,52.21a7.08,7.08,0,0,1-4.92,2.2l-.8,0a8.43,8.43,0,0,1-2.33-.3,6.73,6.73,0,0,1-3.94-3,7.79,7.79,0,0,1-.77-1.78A7.08,7.08,0,0,1,43,46.2a6.88,6.88,0,0,1,.77-2.2,7.06,7.06,0,0,1,1.27-1.74,7.82,7.82,0,0,0,2.67,5.53C50.15,49.91,54.72,50,57.68,48.29Z"/><path class="cls-11" d="M49.64,46c2.65-.66-.46-4.92-1.86-3.57S47.87,46.48,49.64,46Z"/></svg>