<svg xmlns="http://www.w3.org/2000/svg" viewBox="0 0 463.32 415"><defs><style>.cls-1{fill:#490101;}.cls-2{fill:#750506;}.cls-3{fill:#3f0000;}.cls-4{fill:#bf2126;}.cls-5{fill:#fff;}.cls-6{fill:#fcca98;}.cls-7{fill:#f8a475;}.cls-8{fill:#fbb017;}.cls-9{fill:#99161a;}.cls-10{fill:#d94436;}.cls-11{fill:#cbddc7;}.cls-12{fill:#f58b57;}.cls-13{fill:#5c0000;}.cls-14{fill:#5a0000;}.cls-15{fill:#ffdd39;}.cls-16{fill:#7d0a0b;}</style></defs><title>Ресурс 1</title><g id="Слой_2" data-name="Слой 2"><g id="OBJECTS"><ellipse class="cls-1" cx="113.04" cy="398.33" rx="113.04" ry="16.67"/><ellipse class="cls-1" cx="333.24" cy="397.82" rx="83.27" ry="12.28"/><path class="cls-2" d="M409.18,166.49C351.31,117.84,301.3,138.86,270,138.86c-.18,6.88,1,30.29-1.76,38.88,8.86,8.61,19.15,21.44,17.76,33.58-1.94,16.87-14.82,36.2-19.69,43a11.46,11.46,0,0,1,.45,5c-1.83,7-20.95,17.65-24.63,16.92-.75-.15-2.08-2-3.68-4.89a30.81,30.81,0,0,1-8.72,6.68c-1.14,7.07-3.64,15.75-5.67,16.77a1,1,0,0,1-.25.07,114.82,114.82,0,0,0,.6,14c-1.62.28-3.21.53-4.8.77,10.15,48.81,79.81,112.53,170.08,69.38C483.1,334.34,480,226,409.18,166.49Z"/><path class="cls-3" d="M34.35,227.34l-12.19-2s3.08-19.16-9.58-20.19S3,255.81,4.36,257.52c1,1.31,18.33,5.62,26.38,7.57C29.72,257.34,32.11,234.72,34.35,227.34Z"/><path class="cls-3" d="M164.21,374.87,165.9,387s-19.22,2.72-16.46,15.12,51.21-5.81,52.44-7.62c.79-1.16.23-13.79-.27-22.74C191.08,377.13,173,377.17,164.21,374.87Z"/><path class="cls-2" d="M48.29,223.94c-4.37,0-11,.17-12.79,1.07-.36.18-.76,1-1.15,2.33-2.24,7.38-4.63,30-3.61,37.75a5.74,5.74,0,0,0,.66,2.35c2.73,3.76,52.35,14.71,77.67,38s46.2,63,50.65,67.42a10.65,10.65,0,0,0,4.49,2c8.77,2.3,26.87,2.26,37.4-3.13a19.89,19.89,0,0,0,3.62-2.33c3.66-3,.54-37.3,13.53-59.65C105.92,326.57,56.2,239.48,48.29,223.94Z"/><path class="cls-3" d="M132.94,40.56c-8.89-4.44-8.89,8.56-8.89,8.56s-4.11-23.61-25.33-18.48c-20.65,5-24.43,35.92-1.58,54,13.43-12.06,29-18.42,37.64-20.54C136.76,56.84,139.29,43.74,132.94,40.56Z"/><path class="cls-4" d="M154.34,105.21c-1.53-4-3.11-7.85-4.57-11-21.36,2.69-38.69,19.7-44.75,23.2,3.54,8.65,11.67,28.17,17,38.59,5.9-4.06,11.05-7.31,14.59-9.47C140.75,127.24,147.48,114.11,154.34,105.21Z"/><path class="cls-4" d="M104,202.26a2.42,2.42,0,0,1,.36-.1c6.36-1.42,29.8,21.31,31.12,30.89a116.45,116.45,0,0,0,25.32,14.2c13.06,5.23,24.13,9.17,33.34,12.17,2-8.63,12.37-10.74,12.37-10.74s-6.26-6.62.36-11c4.44-3,12.85-3.27,17.91-3.16-.26-2.08-.14-3.57.48-4.19,4-4.05,17.23-12.14,22.43-12.14,2.48,0,15.69,24.35,18.66,36.15,4.87-6.79,17.75-26.12,19.69-43,1.39-12.14-8.9-25-17.76-33.58a104.37,104.37,0,0,1-4.14,10.65c-17.45,38.67-64.68,43.8-73.91,44.49s-5.82,10.61-5.82,10.61c-20.19-4.45-59.2-32.85-48.94-91q.54-3.06,1.17-5.92C133.05,148.7,127.9,152,122,156c-10.12,7-22.44,16.27-32.62,26.49a3.3,3.3,0,0,1,1.56.76A153.54,153.54,0,0,0,104,202.26Z"/><path class="cls-4" d="M223.8,294.89c-5.28,1.1-66.86-8.57-109.94-41.24a9.68,9.68,0,0,1-2.41.44c-5.82.07-25.55-18.51-25.32-27.07,0,0,0,0,0-.06-10.33-11.87-13.36-18.36-14.26-22.09-4.85,4.37-15.56,13.4-24.74,16.72,0,0,.38.85,1.15,2.35,7.91,15.54,57.63,102.63,170.47,85.82l.84-.14c1.59-.24,3.18-.49,4.8-.77A114.82,114.82,0,0,1,223.8,294.89Z"/><path class="cls-3" d="M196.53,272.58c-2.77-5.53-3.22-9.83-2.44-13.16-9.21-3-20.28-6.94-33.34-12.17a116.45,116.45,0,0,1-25.32-14.2c0,.19.06.38.06.55.41,8.2-14.25,17.92-21.63,20.05C156.94,286.32,218.52,296,223.8,294.89a1,1,0,0,0,.25-.07c2-1,4.53-9.7,5.67-16.77C218.47,284,202.77,285.07,196.53,272.58Z"/><path class="cls-3" d="M86.14,227c.29-8.36,12.87-23,17.81-24.7a153.54,153.54,0,0,1-13-19,3.3,3.3,0,0,0-1.56-.76c-6.43-1.27-18.26,15.69-17.95,18.21a20.66,20.66,0,0,0,.45,4.16C72.78,208.6,75.81,215.09,86.14,227Z"/><path class="cls-5" d="M135.42,152.46c-10.26,58.18,28.75,86.58,48.94,91,0,0-3.42-9.93,5.82-10.61s56.46-5.82,73.91-44.49a104.37,104.37,0,0,0,4.14-10.65,81.92,81.92,0,0,0,4.1-23.16c.51-18.93-6.18-31.7-5.5-40.1-1.48.29-9.3-7.34-21.49-15,1.65,7.35,1.1,15.08.11,21.08,8,10.16,5.14,29-18,30.54-21.3,1.39-24.26-12-24.61-17.16-.38-.1-.76-.22-1.12-.35-8.12,10.64-31.46,9.85-32.44-13.63-.8-19.19,8.36-21.77,12.46-22A43.7,43.7,0,0,1,193.51,84.4a68,68,0,0,0-15,2.7s-12.3,2.7-24.2,18.11c-6.86,8.9-13.59,22-17.75,41.33Q136,149.4,135.42,152.46Z"/><path class="cls-6" d="M193.51,84.4A43.7,43.7,0,0,0,181.76,98a9.47,9.47,0,0,1,1.91.07c1.68,9.7,8.24,13.5,13.86,15a12.31,12.31,0,0,1,20.71,9,11.92,11.92,0,0,1-.15,1.8c11.12,2.54,23.41-6.94,23.41-6.94a17.07,17.07,0,0,1,3.95,3.68c1-6,1.54-13.73-.11-21.08C232.28,91.25,214.2,83,193.51,84.4Z"/><path class="cls-4" d="M236.71,68.28C256.64,76.61,268,89.06,271.35,96c6.53-3.73,20.18-11,22.51-7.87.87,1.15,1.81,2.36,2.73,3.5a10.58,10.58,0,0,1,9.13-6.88c-1.91-10.11-1.69-25.14-9.81-34.6-10.26-12-26.34-15.06-63-7.53C205,48.36,197,58.48,194.77,63,205.46,60.59,220.84,61.65,236.71,68.28Z"/><path class="cls-5" d="M245.34,99.47c12.19,7.67,20,15.3,21.49,15,3.42-.69,6.5-9.93,5.47-15.74a10.81,10.81,0,0,0-.95-2.74c-3.32-6.94-14.71-19.39-34.64-27.72-15.87-6.63-31.25-7.69-41.94-5.32-4.74,1.05-8.57,2.77-11.1,5-8.21,7.19-5.13,19.16-5.13,19.16a68,68,0,0,1,15-2.7C214.2,83,232.28,91.25,245.34,99.47Z"/><path class="cls-5" d="M296.59,91.63a10.6,10.6,0,1,0,9.93-6.92c-.27,0-.53,0-.8,0A10.58,10.58,0,0,0,296.59,91.63Z"/><path class="cls-5" d="M193.6,122a12.29,12.29,0,0,1,3.93-9c-5.62-1.45-12.18-5.25-13.86-15a9.47,9.47,0,0,0-1.91-.07c-4.1.2-13.26,2.78-12.46,22,1,23.48,24.32,24.27,32.44,13.63A12.3,12.3,0,0,1,193.6,122Z"/><path class="cls-5" d="M241.5,116.87s-12.29,9.48-23.41,6.94a12.25,12.25,0,0,1-15.23,10.12c.35,5.17,3.31,18.55,24.61,17.16,23.12-1.5,26-20.38,18-30.54A17.07,17.07,0,0,0,241.5,116.87Z"/><path class="cls-7" d="M218.09,123.81a11.92,11.92,0,0,0,.15-1.8,12.32,12.32,0,1,0-16.5,11.57c.36.13.74.25,1.12.35a12.25,12.25,0,0,0,15.23-10.12Z"/><path class="cls-8" d="M135.49,233.6c0-.17,0-.36-.06-.55-1.32-9.58-24.76-32.31-31.12-30.89a2.42,2.42,0,0,0-.36.1C99,203.93,86.43,218.6,86.14,227c0,0,0,0,0,.06-.23,8.56,19.5,27.14,25.32,27.07a9.68,9.68,0,0,0,2.41-.44C121.24,251.52,135.9,241.8,135.49,233.6Zm-24.26,11.94c-3.9,0-17.16-12.43-17-18.18s9.07-16,12.21-16.69c4.35-1,20.63,14.91,20.94,21.11S115.14,245.49,111.23,245.54Z"/><path class="cls-3" d="M127.38,231.78c-.31-6.2-16.59-22.08-20.94-21.11-3.14.7-12,11-12.21,16.69s13.1,18.22,17,18.18S127.68,238,127.38,231.78Z"/><path class="cls-3" d="M224.73,234.49c-5.06-.11-13.47.2-17.91,3.16-6.62,4.41-.36,11-.36,11s-10.34,2.11-12.37,10.74c-.78,3.33-.33,7.63,2.44,13.16,6.24,12.49,21.94,11.44,33.19,5.47a30.81,30.81,0,0,0,8.72-6.68C233.45,262.35,225.8,243.22,224.73,234.49Z"/><path class="cls-5" d="M247.64,218.16c-5.2,0-18.39,8.09-22.43,12.14-.62.62-.74,2.11-.48,4.19,1.07,8.73,8.72,27.86,13.71,36.88,1.6,2.88,2.93,4.74,3.68,4.89,3.68.73,22.8-9.93,24.63-16.92a11.46,11.46,0,0,0-.45-5C263.33,242.51,250.12,218.16,247.64,218.16Z"/><path class="cls-5" d="M152.53,94s-8.21-28.75-10.6-30.46c-.6-.42-2.92-.26-6.38.59-8.6,2.12-24.21,8.48-37.64,20.54a79.55,79.55,0,0,0-8.34,8.64c-3.17,3.84,11,22.24,13.35,24.64.33.34,1,.12,2.1-.48,6.06-3.5,23.39-20.51,44.75-23.2Q151.14,94,152.53,94Z"/><path class="cls-9" d="M296.3,78.92c-1.21-5.27-1.38-11.19-5-15.19a14.41,14.41,0,0,0-10.19-4.26A35.06,35.06,0,0,0,270,61.32,129.31,129.31,0,0,0,244.48,72c15.14,8,24,18.07,26.87,24,6.53-3.73,20.18-11,22.51-7.87.87,1.15,1.81,2.36,2.73,3.5a10.48,10.48,0,0,1,2.9-4.21A34.87,34.87,0,0,1,296.3,78.92Z"/><path class="cls-9" d="M121.3,105.75c-7.58,5-13.3,10-16.28,11.67,3.54,8.65,11.67,28.17,17,38.59,5.9-4.06,11.05-7.31,14.59-9.47q1.2-5.59,2.68-10.51A66.14,66.14,0,0,1,121.3,105.75Z"/><path class="cls-9" d="M266.37,183q-1,2.65-2.28,5.43c-17.45,38.67-64.68,43.8-73.91,44.49s-5.82,10.61-5.82,10.61c-13.65-3-35.91-17-45.71-43.68A107.24,107.24,0,0,0,147.72,241a109.47,109.47,0,0,0,13,6.27c13.06,5.23,24.13,9.17,33.34,12.17,2-8.63,12.37-10.74,12.37-10.74s-6.26-6.62.36-11c4.44-3,12.85-3.27,17.91-3.16-.26-2.08-.14-3.57.48-4.19,4-4.05,17.23-12.14,22.43-12.14,1.21,0,5,5.82,8.87,13.14q4.46-6,8.74-12.14a33,33,0,0,0,4.22-7.38c1.62-4.47,1.28-9.4.64-14.11A55.12,55.12,0,0,0,266.37,183Z"/><path class="cls-9" d="M218.76,309.76l.84-.14c1.59-.24,3.18-.49,4.8-.77a114.82,114.82,0,0,1-.6-14c-4,.84-40.54-4.55-76.76-21.52a20,20,0,0,1-5.56,8.3,32.4,32.4,0,0,1-8.63,4.94c-5.62,2.45-11.36,4.64-17.17,6.58C141.58,307.38,175.53,316.2,218.76,309.76Z"/><path class="cls-10" d="M303.08,66.93c-1.2-6.11-3.17-12.12-7.17-16.78-10.26-12-26.34-15.06-63-7.53-27.34,5.62-35.59,15.43-38,20l.62.15a50.73,50.73,0,0,1,8.19-1,122.54,122.54,0,0,1,65.4-16.32c5.26.19,10.6.75,15.43,2.82C292.77,51.88,298.38,59.16,303.08,66.93Z"/><path class="cls-10" d="M151.29,109.49q1.52-2.28,3.05-4.28c-1.53-4-3.11-7.85-4.57-11-1.28.16-2.54.37-3.79.63A50,50,0,0,0,151.29,109.49Z"/><path class="cls-10" d="M135.42,152.46q.54-3.06,1.17-5.92C133.05,148.7,127.9,152,122,156c-10.12,7-22.44,16.27-32.62,26.49a3.3,3.3,0,0,1,1.56.76s1,1.83,3,4.89c11.43-12.7,25.59-22.75,40.78-30.78C134.88,155.75,135.13,154.12,135.42,152.46Z"/><path class="cls-10" d="M71.88,204.87c-4.85,4.37-15.56,13.4-24.74,16.72,0,0,.38.85,1.15,2.35.64,1.26,1.56,3,2.76,5.1a80,80,0,0,0,23.49-17.81A25.79,25.79,0,0,1,71.88,204.87Z"/><path class="cls-10" d="M280.78,215.56c-1.83,12.24-9.62,22.31-16.39,32.87a57.17,57.17,0,0,1,1.91,5.88c4.87-6.79,17.75-26.12,19.69-43,1-8.45-3.72-17.23-9.65-24.69C279.64,196.05,282.23,205.8,280.78,215.56Z"/><path class="cls-11" d="M121.37,100.11c-7.7-5-13.74-13.22-15-22.22a88.19,88.19,0,0,0-8.5,6.73,79.55,79.55,0,0,0-8.34,8.64c-3.17,3.84,11,22.24,13.35,24.64.33.34,1,.12,2.1-.48,3.58-2.07,11.13-8.88,21.11-14.65A39.44,39.44,0,0,1,121.37,100.11Z"/><path class="cls-11" d="M271.35,96c-2.87-6-11.8-16.13-27.05-24.14C236.07,79.06,225.55,83,215,86.26a101,101,0,0,1,30.36,13.21c12.19,7.67,20,15.3,21.49,15,3.42-.69,6.5-9.93,5.47-15.74A10.81,10.81,0,0,0,271.35,96Z"/><path class="cls-11" d="M317.12,95.57A13.52,13.52,0,0,1,309.89,99c-5,.63-10.55-2.93-10.85-8a12.18,12.18,0,0,1,.43-3.64,10.59,10.59,0,1,0,17.65,8.13Z"/><path class="cls-11" d="M201.74,133.58a12.3,12.3,0,0,1-6.89-6.19,20.33,20.33,0,0,1-11,.13c-5.57-1.69-9.83-6.63-11.39-12.23a23,23,0,0,1,0-11.71c-2,3.26-3.44,8.37-3.11,16.37C170.28,143.43,193.62,144.22,201.74,133.58Z"/><path class="cls-11" d="M247.36,123.54c0,.88-.08,1.75-.2,2.61a17.77,17.77,0,0,1-7.56,11.78A24.08,24.08,0,0,1,226,142a19.28,19.28,0,0,1-10.7-2.77,12.41,12.41,0,0,1-4.74-5.78,12.21,12.21,0,0,1-4.65.93,12.34,12.34,0,0,1-3.06-.4c.35,5.17,3.31,18.55,24.61,17.16C248.48,149.73,252.73,134,247.36,123.54Z"/><path class="cls-11" d="M263.5,162.85a93.11,93.11,0,0,1-85,61.32c-1.71.05-3.52.08-5,1s-2.22,3.11-1.08,4.38a75.41,75.41,0,0,1-28.31-18c11.12,19.15,28.73,29.46,40.23,32,0,0-3.42-9.93,5.82-10.61s56.46-5.82,73.91-44.49a104.37,104.37,0,0,0,4.14-10.65,81.92,81.92,0,0,0,4.1-23.16,87.65,87.65,0,0,0-2.11-20.8C268.76,143.66,266.9,153.48,263.5,162.85Z"/><path class="cls-12" d="M208.51,127.17a12.1,12.1,0,0,1-10.63-.21,13.77,13.77,0,0,1-4.16-3.27,12.31,12.31,0,0,0,8,9.89c.36.13.74.25,1.12.35a12.25,12.25,0,0,0,15.23-10.12,11.92,11.92,0,0,0,.15-1.8,12.26,12.26,0,0,0-2.05-6.79C215.24,120.16,212.93,125,208.51,127.17Z"/><path class="cls-7" d="M234.23,121.17a42.58,42.58,0,0,0,7.27-4.3,17.07,17.07,0,0,1,3.95,3.68c1-6,1.54-13.73-.11-21.08A116.46,116.46,0,0,0,231,91.76a17.55,17.55,0,0,1,4.32,5.69c1.52,3.35,1.65,7.15,1.39,10.82A54.57,54.57,0,0,1,234.23,121.17Z"/><path class="cls-13" d="M169.41,350.6c-2.46-5.69-4-11.73-6-17.61A117.58,117.58,0,0,0,150.85,307c-37.63-9.57-63.86-31.6-80.52-50.9-13-2.57-26.23-4.95-39.44-5.1a80.58,80.58,0,0,0-.15,14,5.74,5.74,0,0,0,.66,2.35c2.73,3.76,52.35,14.71,77.67,38s46.2,63,50.65,67.42a10.65,10.65,0,0,0,4.49,2c5.51,1.44,14.72,2,23.41.81C180.13,368.31,173.57,360.19,169.41,350.6Z"/><path class="cls-14" d="M18.66,213c-.24-1.61-.81-3.58-2.41-3.89s-3,1.62-3.58,3.31c-1.32,4-1.75,8.47.21,12.13.72,1.33,2.24,2.63,3.59,1.95a2.89,2.89,0,0,0,1.05-1.06C19.83,221.89,19.29,217.24,18.66,213Z"/><path class="cls-14" d="M18.73,236.09a2.9,2.9,0,0,0,.87-1,2.2,2.2,0,0,0-.7-2.34,3.46,3.46,0,0,0-5.06.37c-1.08,1.6.09,4.24,2,4.29A4.49,4.49,0,0,0,18.73,236.09Z"/><path class="cls-14" d="M92,190.33A10.32,10.32,0,0,0,90.62,188c-3.84-4.84-6.46.09-6.48,4.42,0,2.47,4.21,14.55,8.3,9.1a3.37,3.37,0,0,0,.53-1.68A19.09,19.09,0,0,0,92,190.33Z"/><path class="cls-14" d="M113.15,229.83a3,3,0,0,0,1.37.1c1.27-.28,1.78-1.81,1.86-3.11A12.94,12.94,0,0,0,107.31,214a2.11,2.11,0,0,0-2,.22,2.17,2.17,0,0,0-.43.84,11.73,11.73,0,0,0,8.32,14.8Z"/><path class="cls-14" d="M154.21,399.82a12.71,12.71,0,0,0,10.47-1.94c1.59-1.17,3-3.22,2.17-5-.9-2.07-3.77-2.2-6-1.8a14.23,14.23,0,0,0-5.33,1.85,6.44,6.44,0,0,0-3.05,4.56,2.23,2.23,0,0,0,.43,1.73A2.56,2.56,0,0,0,154.21,399.82Z"/><path class="cls-14" d="M200.05,274.39c1.57,2.08,3.3,4.28,5.79,5.06,3.85,1.2,8.13-1.82,9.26-5.7s-.3-8.12-2.68-11.38-6.26-5.9-10.13-4.94a5.66,5.66,0,0,0-2,.94c-1.61,1.25-2.22,3.38-2.62,5.38a12.94,12.94,0,0,0,0,6.54A14.71,14.71,0,0,0,200.05,274.39Z"/><path class="cls-14" d="M214.38,240.79a1.88,1.88,0,0,0-.17-.94,1.91,1.91,0,0,0-1.12-.82,4.47,4.47,0,0,0-5.56,3.23,2.9,2.9,0,0,0,.64,2.63,3.13,3.13,0,0,0,3.64.19A5.1,5.1,0,0,0,214.38,240.79Z"/><path class="cls-14" d="M105.42,34.38a18.18,18.18,0,0,0-12.67,3.86A10.38,10.38,0,0,0,89.16,43a5.7,5.7,0,0,0,1.1,5.67,7.15,7.15,0,0,0,2.47,1.52,16.74,16.74,0,0,0,13.29-.4,11.37,11.37,0,0,0,6-6c1-2.73.36-6.14-1.95-7.89A8.63,8.63,0,0,0,105.42,34.38Z"/><path class="cls-14" d="M133.8,44.44a2.14,2.14,0,0,0-2.77-.15,3.91,3.91,0,0,0-.89,1.2A7.34,7.34,0,0,0,129,49.17,2.93,2.93,0,0,0,131.2,52a2.88,2.88,0,0,0,2.74-1.56,6.74,6.74,0,0,0,.66-3.24A3.84,3.84,0,0,0,133.8,44.44Z"/><path class="cls-15" d="M115.52,210.55c-.68-1.46-2.66-2.36-4-3.22a15.77,15.77,0,0,0-5.23-2.33c-1.29-.29-2.27,1.65-.94,2.25a22.11,22.11,0,0,1,4.61,3c1.33,1.05,2.47,2.4,4.22,2.59C115.46,213,116,211.48,115.52,210.55Z"/><path class="cls-15" d="M121,216.54a3.87,3.87,0,0,0-.27-.92,2,2,0,0,0-.66-.75,12,12,0,0,0-1.49-1.08,1.11,1.11,0,0,0-1.34,1.73,12.43,12.43,0,0,1,1,1.14,2.25,2.25,0,0,0,.58.61c.23.14.49.24.73.36A1,1,0,0,0,121,216.54Z"/><path class="cls-15" d="M120.37,245.25a9.28,9.28,0,0,0-4.5,1.81,13.17,13.17,0,0,1-4.14,1.72,1.62,1.62,0,0,0-.39,2.94c3.07,1.62,8.36-.63,10.44-3.06C122.82,247.44,122.25,245.14,120.37,245.25Z"/><path class="cls-15" d="M126.6,241.14a11.29,11.29,0,0,0-2,1c-1.24.59-.36,2.6.93,2.19a3.32,3.32,0,0,0,2.26-1.67A1,1,0,0,0,126.6,241.14Z"/><path class="cls-16" d="M225.42,280.77c-3,.31-5.81,1.18-8.73,1.77a23,23,0,0,1-14.56-2.22c-6.53-3.23-8.36-10.67-8.81-17.33a.75.75,0,0,0-1.5,0c-.19,7.47,1.76,14.31,7.9,18.95,7.2,5.44,18.42,3.51,26.05.13A.7.7,0,0,0,225.42,280.77Z"/><path class="cls-11" d="M190.52,84.28c-3.25.32-6.55.93-9.74,1.56-.61.12-.54,1,0,1.16,3.18.94,6.93-.15,9.94-1.21C191.49,85.52,191.43,84.19,190.52,84.28Z"/><path class="cls-11" d="M179.73,98.09a18.84,18.84,0,0,0-3.18,1.58,7.6,7.6,0,0,0-2.77,2.31.37.37,0,0,0,.41.53,14.12,14.12,0,0,0,3.16-1.46,17.45,17.45,0,0,0,3-1.84C180.91,98.8,180.34,97.85,179.73,98.09Z"/><path class="cls-11" d="M245.27,121.13a.53.53,0,0,0-.27,1,.8.8,0,0,1,.36.39,1.77,1.77,0,0,0,.48.64.66.66,0,0,0,1.11-.46C247,121.72,246.15,121.2,245.27,121.13Z"/><path class="cls-3" d="M258,206.25A20.32,20.32,0,0,1,254,213c-1.38,1.6-3.41,2.86-4.46,4.69A1,1,0,0,0,250.9,219c2.2-1,4.09-3.61,5.56-5.5A21.32,21.32,0,0,0,260,206.8C260.36,205.52,258.39,205,258,206.25Z"/><path class="cls-8" d="M205.18,247.6c-1-1.42-1.32-3.57-1.71-5.25a14.58,14.58,0,0,1-.28-5.77c.16-1.08,2.34-4.77,1.16-5.36-.81-.41-2.66.57-3.28,1.08a6.24,6.24,0,0,0-1.44,1.82,12.32,12.32,0,0,0-1.35,4.27,13.35,13.35,0,0,0,3.84,10.69,1.52,1.52,0,0,0,1.57.24C204.68,249.64,205.92,248.62,205.18,247.6Z"/><path class="cls-13" d="M389.68,379c88.35-42.24,90.37-141.4,30.41-202.4,1.12,2.14,2.17,4.33,3.1,6.57,3.59,8.57,5.59,17.71,7.41,26.82,5.14,25.86,8.62,53.93-3.07,77.56-9,18.25-26.3,31.49-45.2,39.06s-41.23,9.85-59.77,1.09c-19.89-9.39-32.58-30.07-37.73-51.46-3.81-15.84-4.08-32.2-3.41-48.54a141.28,141.28,0,0,1-15.12,26.61,11.46,11.46,0,0,1,.45,5c-1.83,7-20.95,17.65-24.63,16.92-.75-.15-2.08-2-3.68-4.89a30.81,30.81,0,0,1-8.72,6.68c-1.14,7.07-3.64,15.75-5.67,16.77a1,1,0,0,1-.25.07,114.82,114.82,0,0,0,.6,14c-1.62.28-3.21.53-4.8.77C229.75,358.43,299.41,422.15,389.68,379Z"/><path class="cls-9" d="M385.14,162.45c-1.25-8.9-14.7-12.77-21.84-15.28-8.94-3.13-18.72-3.24-28.06-2.84-16.82.71-35.06,2.63-49,12.88-4.88,3.59-2.19,12,4.31,10.23,15.2-4.22,32.74-2,48.31-1.18a65.09,65.09,0,0,1,22,4.75A42,42,0,0,0,375,174.6C381.82,175.08,386,168.37,385.14,162.45Z"/><path class="cls-9" d="M412.46,178a8.42,8.42,0,0,0-3.83-5.1c-1.49-.88-3.43-1.18-5.06-1.76-2.57-.92-7.22-1.61-8.19,2-.88,3.25,1,5.71,3.05,8,2.48,2.88,6,5.54,10,3.94C411.39,183.94,413.31,181.33,412.46,178Z"/><path class="cls-9" d="M201.2,328.35q-.66,5.37-1.34,10.75c-.52,4.06-1.67,8.43-1.16,12.52a2.78,2.78,0,0,0,5.44.74c1.46-3.56,1.46-7.68,1.85-11.47.44-4.18.83-8.36,1.22-12.54C207.58,324.45,201.66,324.58,201.2,328.35Z"/><path class="cls-9" d="M202.27,362.18c-.06-.16-.14-.68-.05.05a2.54,2.54,0,0,0-1.81-2.38,2.47,2.47,0,0,0-3,1.72,5.1,5.1,0,0,0,0,2.13,2.74,2.74,0,0,0,2.15,2,2.2,2.2,0,0,0,2.45-1,3.7,3.7,0,0,0,.47-1.53A3.16,3.16,0,0,0,202.27,362.18Z"/><path class="cls-9" d="M43.3,226.23a7.32,7.32,0,0,0-2.35-.64c-.68,0-1.35-.09-2-.15a2.65,2.65,0,0,0-2.64,2.65,2.7,2.7,0,0,0,2.64,2.64l2,.26a7,7,0,0,0,2.35-.36,2.28,2.28,0,0,0,1.67-2.2A2.34,2.34,0,0,0,43.3,226.23Z"/><path class="cls-14" d="M148.86,248.74c-.46-2.34-2.37-3.62-4.43-4.46l-.4-.15c.47.18-.17-.09-.37-.2l-.23-.15a5.44,5.44,0,0,1-.41-.42c-2.48-2.91-7.94.18-6.54,3.81a10.73,10.73,0,0,0,3.05,4.4,10.39,10.39,0,0,0,3.27,1.85,5.19,5.19,0,0,0,4.34-.47C148.73,252.23,149.15,250.26,148.86,248.74Z"/><path class="cls-14" d="M156.88,253.85a4.29,4.29,0,0,0-1.32-1.84,2.95,2.95,0,0,0-4.17,4.17,5,5,0,0,0,1.92,1.25,3,3,0,0,0,2.94-.82A2.94,2.94,0,0,0,156.88,253.85Z"/><path class="cls-8" d="M234.76,286.35c-1.42-1-3-1.8-4.39-2.8-1.2-.86-2.13-2.16-3.27-3.15a1.87,1.87,0,0,0-3.1,1.22c-.35,1.92.4,4,.84,5.85.58,2.39.85,4.86,2.78,6.6.06.06.13.1.19.15a5,5,0,0,0,.5.53,1.81,1.81,0,0,0,3-.79c.8-2.45-.5-5.39-1.35-7.75a13.12,13.12,0,0,0,3.95,2.21C235.19,288.85,235.74,287.05,234.76,286.35Z"/><path class="cls-5" d="M208.45,88.25c-1.59-3.71-6.81-2.68-9.42-.77a2.1,2.1,0,0,0,.5,3.79,11.22,11.22,0,0,0,3.52.12c1.2,0,2.35.21,3.55.08A2.18,2.18,0,0,0,208.45,88.25Z"/><path class="cls-5" d="M231.45,94.08a8.26,8.26,0,0,0-2.19-2.22,4.56,4.56,0,0,0-3.62-.74c-2,.28-2.91,3.12-1.91,4.7A7,7,0,0,0,227,98.25c.21.1.42.23.62.35l0,0,.1.09a8.69,8.69,0,0,0,1.4,1.17,2.15,2.15,0,0,0,2.89-.75C233.08,97.56,232.35,95.55,231.45,94.08Z"/><path class="cls-3" d="M205.71,100A4.14,4.14,0,0,0,203,96.05c-3.45-1-7.62,2.48-8,5.85-.14,1.12,1.62,1.54,2.1.57.66-1.32,3.27-4.09,5-3.34.77.34.47,1.9.42,2.53a5.33,5.33,0,0,0,.21,3.21,1.31,1.31,0,0,0,2.24,0C205.76,103.6,205.8,101.46,205.71,100Z"/><path class="cls-3" d="M229.55,108a5.52,5.52,0,0,0-2.67-4.3c-3-1.79-8.45.18-8.44,4.1a1.26,1.26,0,0,0,1.88,1.08c1.4-1,2.52-3.21,4.51-2.14s.46,3.44.44,5.16a1.37,1.37,0,0,0,2,1.17C229.08,112.22,229.71,109.85,229.55,108Z"/><path class="cls-10" d="M189.66,96.54c-5.92,0-5.92,9.19,0,9.19S195.59,96.54,189.66,96.54Z"/><path class="cls-10" d="M234.32,109.88c-5.93,0-5.93,9.19,0,9.19S240.25,109.88,234.32,109.88Z"/><path class="cls-10" d="M199.71,139.74a3,3,0,0,0-3.54,1.84,14.17,14.17,0,0,0-.87,2.2,3,3,0,0,0,5.5,2.32,11.23,11.23,0,0,0,1-2.75A3,3,0,0,0,199.71,139.74Z"/><path class="cls-8" d="M253.79,298.9c2.3,8.34,3.55,17.18,8.76,24.56a11.06,11.06,0,0,0,4.47,4,8.69,8.69,0,0,0,7.13-.07c1.6-.8,2.67-2.1,4.09-3.1s3.63-1.68,4.9-.88.56,2.77-.65,4.06c-3.29,3.54-9.72,6.21-14.92,5.49a12.53,12.53,0,0,1-4.52-1.47,14.56,14.56,0,0,1-3.73-3.21,29.83,29.83,0,0,1-3.08-4.25,50.26,50.26,0,0,1-2.41-5.22c-2.25-5.58-2.89-11.49-5-17.1-1.28-3.38-2.58-6.79-2.7-10.44a15.76,15.76,0,0,1,5.14-11.46c3.38-3.23,10.4-5.83,14.51-3.16a1.75,1.75,0,0,1,.76,2.38c-.73,1.25-2.85,1.66-4.55,1.66-10.56,0-10.91,8.36-9.36,14C253,296.07,253.4,297.49,253.79,298.9Z"/><path class="cls-8" d="M302.14,325.41l-.39.06c-4.12.43-4.16-8-4.8-10.09q-2-6.63-4.06-13.27a15.73,15.73,0,0,0-4.52.55c-1.47.47-2.85,1.47-3.08,2.63a3.36,3.36,0,0,0,.28,1.71q2.13,5.91,4.25,11.83c.32.89,4.25,9.78-.36,8.27-3.13-1-4.38-7.41-5.2-9.6q-5.33-14.21-10.78-34.92c-.41-1.53,1.92-1.41,3-1.06,2.58.81,1.89,2.73,2.37,4.54l4,12.73.53,2.38a7.88,7.88,0,0,0,.6,1.58l8.24-2.67c-1.72-6.12-3.58-12.18-5.58-18.22a3.61,3.61,0,0,1-.25-2.2,2.49,2.49,0,0,1,2.07-1.64c1.41-.12,2.07,1.07,2.39,2.07l6.93,22.06q1.77,5.61,3.53,11.22C301.93,315.25,307.21,324.41,302.14,325.41Z"/><path class="cls-8" d="M310.77,330.89l-9.5-37.41-2.07-7.83a1.26,1.26,0,0,1,.15-1.17,5,5,0,0,1,2.16-.9,11.58,11.58,0,0,1,3.84-.33,10.07,10.07,0,0,1,3.58.86,12.72,12.72,0,0,1,2.79,1.93,10.7,10.7,0,0,1,3.23,5.29,16.13,16.13,0,0,1-.26,7.68l-.54,2.1c-.27,1.07-.42,1.7-.46,1.89q1.29,4.71,6.52,11.4,1.79,2.27,5,6.15c2.15,2.59,3.49,4.23,4,4.93l0,.15c.38,1.43.37,2.33,0,2.69a3.29,3.29,0,0,1-1.36.74,4.51,4.51,0,0,1-3.61-.88l-.05-.22q-2-5.65-10.08-16-3.72-4.74-5.3-7.08l6.62,25.08a2.22,2.22,0,0,1-.08,1.61,2.28,2.28,0,0,1-1.56,1,3,3,0,0,1-2,0,1.63,1.63,0,0,1-1-1.1ZM304.09,286c1.11,4.9,1.3,11.21,3.79,15.59a20.94,20.94,0,0,1,1.73-2.33c1.93-3.1.81-6.39-.37-9.17a7.55,7.55,0,0,0-2-3C307.05,286.89,304,285.73,304.09,286Z"/><path class="cls-8" d="M325.07,276.94l-1.37.33a2.22,2.22,0,0,0-1.06.53c-.82.92.48,3.2.74,4q1,3.12,2.09,6.24c2.6,7.76,5.57,15.41,7.66,23.32l.57,2.17c.52-.19,1-.36,1.57-.5,2.14-.56,3.39-.19,3.74,1.14l.09.33-1.68,1.47-5.22,1.53q-6.7,1.75-7.15.08c-.23-.9.43-1.55,2-2l1.65-.34c.76-.2,1-.74.79-1.62q-1.16-4.37-4.16-12.86t-4.16-12.86l-1.37-5.79a23.29,23.29,0,0,0-1-3.09,8.12,8.12,0,0,1-1.75.72c-1.21.32-1.93,0-2.17-.87-.12-.46.16-1,.86-1.51a11.21,11.21,0,0,1,2.72-1.49,44.47,44.47,0,0,1,4.72-1.69,4.34,4.34,0,0,1,2.37-.14,1.33,1.33,0,0,1,1,.89,1.4,1.4,0,0,1-.23,1.21A1.91,1.91,0,0,1,325.07,276.94Z"/><path class="cls-8" d="M340.21,320.34c-1.13-1.76,2.39-2.31,3.93-2.26a9.68,9.68,0,0,0,2.73-.23A4.19,4.19,0,0,0,349,316.2a7.4,7.4,0,0,0,1.33-3.08,13.53,13.53,0,0,0,0-6,14.37,14.37,0,0,0-2.62-5,30.13,30.13,0,0,0-4.35-4.6c-1.59-1.37-3.2-2.74-4.81-4.11q-5.76-4.89-7-9.84a8.47,8.47,0,0,1,2.12-8.4,10.16,10.16,0,0,1,5.54-2.91c1.64-.27,5.35,0,4.23,2-.66,1.19-2.84,1.25-4.05,1a4.77,4.77,0,0,0-2.37,1.75,5.57,5.57,0,0,0-.93,4.8,14.88,14.88,0,0,0,2.19,4.69,19.37,19.37,0,0,0,3.34,3.71c1.22,1,2.53,2.16,3.93,3.37s2.78,2.37,4,3.5a19,19,0,0,1,5.79,9.41,12.22,12.22,0,0,1-.73,8.13,10,10,0,0,1-2.8,3.73,11.74,11.74,0,0,1-4.73,2.42c-1.94.51-5.64,1.29-6.78-.21A1.19,1.19,0,0,1,340.21,320.34Z"/><path class="cls-8" d="M355.18,274.46c1.29,3.86,2.77,7.76,3.06,8.66l5,15.61,4.05,12.15q.88,3.38-1.84,4.08a2.67,2.67,0,0,1-2.59-.46,4.3,4.3,0,0,1-1.37-2.19l-2.16-11.19q-.93-3.56-3.47-10.55T352.38,280L350.94,274q-1.31-4.94-2.57-6.18l-5,1.72a4.57,4.57,0,0,1-2.29,0,1.59,1.59,0,0,1-1.3-1.09c-.14-.55.49-1.21,1.9-2a34,34,0,0,1,5.31-2.34q5.55-2,9.43-3a4.29,4.29,0,0,1,2.25,0,1.68,1.68,0,0,1,1.31,1.15,1.52,1.52,0,0,1-.48,1.54,4.19,4.19,0,0,1-1.9,1,27.11,27.11,0,0,0-4.26,1.08C352.6,266.23,353.79,270.32,355.18,274.46Z"/><path class="cls-8" d="M373.52,300.32l-9-26.06c-.74-2.15-5.26-7.5-1.93-9.93,4.89-3.57,9.89,6.06,11.27,7.91q5.73,7.72,9.78,14.06c2.7,4.22,4.18,6.5,4.43,6.86-.05-1.59-.13-4.45-.21-8.57s-.19-7.3-.3-9.56a92.32,92.32,0,0,0-2.21-17.17l-.13-.4c-.37-1.12,1.48-3,3.14-3s2.22,1.09,2.77,2c1.31,2.13,1.44,4.67,2.27,7,2,5.37,4,10.72,6.09,16.05q6.17,15.86,8.85,23.94c.41,1.25.35,3.55-1.3,4.64-2.29,1.51-3.5,0-4-1.43l-9.77-28.32-1.13-3.43c.15,1.88.2,5.23.16,10.07a79.94,79.94,0,0,0,.44,10.92l.14.43a12.84,12.84,0,0,0,.15,1.35c.24,1.72.54,6-3.28,6.08-2.88.09-3.91-3.79-4.43-5.37q-2.07-6.22-9.94-16.07-3.94-4.92-5.19-6.71,1.61,5.47,2.51,8.21l5,13.91,3.42,9.47c.58,1.59,2.91,5.38.64,7-3,2.12-4.71-1.07-5.16-2.63Z"/><path class="cls-8" d="M431.39,287.41c-1.76,1-2.93.89-3.52-.19l-4.42-8.16a18,18,0,0,0-4.95,1.34c-2.26.86-4.25,1.69-5.94,2.51a10,10,0,0,0,.27,4c.45,1.91,2.67,6.49,1.16,8.68-4,5.78-4.72-2.94-5-4.28-.65-3.09-1.46-6.12-2.29-9.15q-3.45-12.71-5.2-20a78.52,78.52,0,0,1-2.13-12.7c-.14-2,.9-9.58,4.87-6.72,1.17.85,1.87,2.73,2.71,3.85,1.67,2.26,3.4,4.48,5.14,6.7q7,8.92,8.57,11.82a94.47,94.47,0,0,0,6.09,9.11,93.78,93.78,0,0,1,6.36,9.58Q434.25,285.86,431.39,287.41Zm-14.67-18.47q-3.75-5.15-7.09-9.84t-3.9-5.75a11.47,11.47,0,0,1-.61-1.23q-.8,1.73,2.19,13.32t4.29,14.39a35.73,35.73,0,0,0,6.36-2.54,26,26,0,0,0,3.33-2Q420.48,274.08,416.72,268.94Z"/><path class="cls-8" d="M432.44,277.08c-.59-1.13-.23-2,1.07-2.7a10.63,10.63,0,0,1,2.82-.84,11.15,11.15,0,0,0,3-.94,4.79,4.79,0,0,0,2-2.38,8.54,8.54,0,0,0,.74-3.78,15.81,15.81,0,0,0-1.47-6.73,16.66,16.66,0,0,0-4.19-5,36.16,36.16,0,0,0-6-4.09c-2.12-1.15-4.27-2.29-6.42-3.42q-7.68-4.06-10.32-9.31a9.78,9.78,0,0,1,.3-10,10.92,10.92,0,0,1,4.63-4.26c1.3-.67,4.22-1.32,5.28-.59,2.46,1.68-1.94,2.55-3.46,3.49a5.52,5.52,0,0,0-2.24,2.55,6.38,6.38,0,0,0,.15,5.61,16.8,16.8,0,0,0,3.61,4.73,22.12,22.12,0,0,0,4.67,3.34q2.44,1.29,5.26,2.81t5.38,2.94a22,22,0,0,1,8.83,9.14,14.14,14.14,0,0,1,1.19,9.31,11.62,11.62,0,0,1-2.22,4.88,13.34,13.34,0,0,1-4.72,3.88,16.32,16.32,0,0,1-5.29,1.87C433.55,277.77,432.7,277.6,432.44,277.08Z"/><path class="cls-8" d="M293.63,258.68l-4.9-17.63c-.41-1.49-1.29-2.88-1.32-4.47,0-2.24,2-2.37,3.89-1.34,2.05,1.12,3.06,3.08,4.18,4.72,3.2,4.69,6,9.54,9,14.33.09-1.9.16-3.79.28-5.7q.25-4.11.33-6.38a65.52,65.52,0,0,0-.18-8.3c-.11-1.21-1.78-5.35,1.85-5.35a2.38,2.38,0,0,1,2.14,1.15c.83,1.49.58,3.44,1.06,5,1.07,3.58,2.21,7.14,3.36,10.69q3.5,10.76,4.93,16.22a2.6,2.6,0,0,1-.36,2.12,2.56,2.56,0,0,1-1.44,1.24c-1.1.29-1.81-.17-2.13-1.37-1.89-7.18-4-14.32-6-21.48q-.24,5.49-.5,11c-.05,1.1.69,8.59-2.78,8.28a2.1,2.1,0,0,1-1.42-.77c-1.72-1.86-1.83-4.66-2.92-6.81a52.13,52.13,0,0,0-4.67-7.21c-1.68-2.26-2.79-3.8-3.31-4.62q.84,3.69,1.32,5.55l5.52,18.63a2.19,2.19,0,0,1-.57,2,3.05,3.05,0,0,1-2.56-.13,3.27,3.27,0,0,1-1.16-1.9Z"/><path class="cls-8" d="M323.82,238.65l-1.7.41a2.22,2.22,0,0,0-1.3.7l3.72,14.1a30.91,30.91,0,0,1,6.27-1.55c.61-.05,1.33,0,1.59.32s-.18,1-.72,1.41c-1.9,1.45-4.33,1.87-6.71,2.5-1.68.44-2.77.49-3.29.15a1.29,1.29,0,0,1-.48-.76c-2-7.62-3.61-15.39-6-22.91a44.75,44.75,0,0,0-2.24-5.71c-.65-1.38-1.36-2.86.57-4.34a12.35,12.35,0,0,1,4-1.76c1.36-.39,3.08-.64,3.77.11s-.16,1.82-1.29,2.37a10.51,10.51,0,0,1-3.73.79q1.21,3.18,2.13,6.45c.52,1.88.43,4.65,1.62,6.22a4,4,0,0,0,.75-.3,13.78,13.78,0,0,1,2.1-.82,2.69,2.69,0,0,1,1.49,0,1.1,1.1,0,0,1,.85.75,1.28,1.28,0,0,1-.24,1.09A2,2,0,0,1,323.82,238.65Z"/><path class="cls-8" d="M333,250.51l-6.81-26.87c-.21-.82-.43-1.65-.65-2.47s-1.27-2.48-.92-3.38c.58-1.5,3.29-1.67,4.86-1.59a8.13,8.13,0,0,1,2.75.58,9.7,9.7,0,0,1,2.13,1.34,7.46,7.46,0,0,1,2.41,3.78,10.92,10.92,0,0,1-.31,5.55c-.08.24-.22.75-.44,1.52l-.39,1.37q.93,3.39,4.87,8.14c.9,1.07,2.15,2.52,3.77,4.37s2.63,3,3.05,3.5l0,.11c.27,1,.25,1.67-.06,1.94a2.76,2.76,0,0,1-1.06.55,3.53,3.53,0,0,1-2.76-.58l-.05-.16q-1.43-4.07-7.54-11.44c-1.87-2.25-3.19-3.93-4-5l4.75,18a1.55,1.55,0,0,1-.08,1.16,1.89,1.89,0,0,1-1.22.73,2.43,2.43,0,0,1-1.54,0,1.17,1.17,0,0,1-.72-.77Zm-4.52-32.29,2.09,9.42c.25.94.46,1.63.62,2.08-.23-.62,1.22-1.82,1.51-2.45,1-2.05.42-4.47-.33-6.28a4.57,4.57,0,0,0-1.52-2.16C330.69,218.71,328.43,218,328.48,218.22Z"/><path class="cls-8" d="M349.62,250.19l-6.8-26.87-1.48-5.62a.85.85,0,0,1,.13-.85,4.23,4.23,0,0,1,1.67-.68,9.68,9.68,0,0,1,3-.29,8.13,8.13,0,0,1,2.74.57A9.88,9.88,0,0,1,351,217.8a7.31,7.31,0,0,1,2.41,3.78,11,11,0,0,1-.3,5.55c-.08.24-.23.75-.45,1.52s-.35,1.23-.38,1.37q.93,3.38,4.87,8.14c.89,1.07,2.15,2.52,3.76,4.36s2.64,3,3.05,3.51l0,.11c.27,1,.25,1.67-.06,1.93a2.61,2.61,0,0,1-1.05.56,3.56,3.56,0,0,1-2.77-.59l0-.15q-1.43-4.06-7.55-11.45-2.79-3.36-4-5l4.75,18a1.53,1.53,0,0,1-.08,1.17,1.84,1.84,0,0,1-1.22.73,2.43,2.43,0,0,1-1.54,0,1.13,1.13,0,0,1-.71-.78ZM345.1,217.9l2.1,9.42a20.94,20.94,0,0,0,.62,2.08c-.18-.78,1.11-1.81,1.46-2.58a7.55,7.55,0,0,0-.48-6.48,4.87,4.87,0,0,0-1.34-1.78C347.29,218.45,345.05,217.69,345.1,217.9Z"/><path class="cls-8" d="M368.5,250.57c-2.12-8-3.95-15.69-9.09-22.73-2.12-2.91-5-5.41-5.85-8.84-.06-.22.08-.46.43-.72a3.18,3.18,0,0,1,1.14-.55q.63-.16,1.62.69a13.3,13.3,0,0,1,2,2.34c.68,1,1.34,2,2,3s1.21,2,1.77,2.91a20.58,20.58,0,0,0,1.15,1.81,13.92,13.92,0,0,0-.19-2c-.14-1-.28-2.1-.4-3.2s-.17-2.25-.19-3.39q-.08-3.92,1.72-4.39c1.21-.32,1.85-.31,1.94,0a29.15,29.15,0,0,1,.4,8.07,45.42,45.42,0,0,0,1.77,14.07c.61,2.29,1.33,4.55,2.07,6.8.5,1.51,4,5.68-.16,6.78a2.53,2.53,0,0,1-1.39,0A1,1,0,0,1,368.5,250.57Z"/><path class="cls-15" d="M259.47,277.28c-3.17.17-8.39,1.24-9.05,5-.15.88.77,1.9,1.66,1.28,1.2-.83,2.19-1.9,3.4-2.71a12.78,12.78,0,0,1,4.24-1.73A.94.94,0,0,0,259.47,277.28Z"/><path class="cls-15" d="M250.84,285.26a1.32,1.32,0,0,0-2.38.31,4.78,4.78,0,0,0-.18,1.63,1.19,1.19,0,0,0,1.78,1,2.25,2.25,0,0,0,1-1.27A2.18,2.18,0,0,0,250.84,285.26Z"/><path class="cls-15" d="M277.24,283.89c-.17-.95-1.81-.74-1.7.23.32,2.78.88,6,2.39,8.42a.92.92,0,0,0,1.67-.71C279.18,289.13,277.75,286.62,277.24,283.89Z"/><path class="cls-15" d="M280.76,295.67a1.28,1.28,0,0,0-2.55,0,4.09,4.09,0,0,0,.84,2.5,1,1,0,0,0,1.65-.44A4.35,4.35,0,0,0,280.76,295.67Z"/><path class="cls-15" d="M312,288.34a10.55,10.55,0,0,0-3.46-3.22.63.63,0,0,0-.76,1,17.83,17.83,0,0,1,2.33,2.87c.74,1.13.83,2.41,1.41,3.58a.94.94,0,0,0,1.71-.22C313.64,290.93,312.76,289.46,312,288.34Z"/><path class="cls-15" d="M313.7,294.9a1.11,1.11,0,0,0-2.21,0,4.34,4.34,0,0,0-.07,1.52c.17.56.52,1.14,1.18,1.14a1.27,1.27,0,0,0,1.12-.95A4.47,4.47,0,0,0,313.7,294.9Z"/><path class="cls-15" d="M320.55,277.56c-.14-.31-.61-.08-.53.22.43,1.7.91,3.4,1.41,5.08s.76,3.48,1.41,5.07c.33.8,1.65.78,1.61-.22C324.31,284.24,321.93,280.68,320.55,277.56Z"/><path class="cls-15" d="M324.94,290.54c0-.86-1.41-1.13-1.56-.21s.17,2.48,1.46,2.16a.69.69,0,0,0,.52-.67C325.3,291.35,325,291,324.94,290.54Z"/><path class="cls-15" d="M336.6,274.91c-.81-.28-1.57.56-2.05,1.1a5,5,0,0,0-1.3,2.47c-.15.83.91,1.71,1.57.92a9.25,9.25,0,0,0,1.17-2c.29-.63,1-1.27,1-2A.52.52,0,0,0,336.6,274.91Z"/><path class="cls-15" d="M350.88,264.55c-1.07-.31-1.95.29-2.95.64s-2.31.49-3.43.85a.66.66,0,0,0-.15,1.19,6.1,6.1,0,0,0,3.51.42c1.33-.13,2.92-.23,3.7-1.44A1.14,1.14,0,0,0,350.88,264.55Z"/><path class="cls-15" d="M354.83,263.67a1.78,1.78,0,0,0-1.17-.22.91.91,0,0,0,0,1.82,1.78,1.78,0,0,0,1.17-.22A.81.81,0,0,0,354.83,263.67Z"/><path class="cls-15" d="M367.88,271.83a43.29,43.29,0,0,1-1.79-4.07c-.77-2-4-1.2-3.3.9.53,1.52,1.15,3,1.8,4.46a7.61,7.61,0,0,0,2.53,3.65,1.3,1.3,0,0,0,1.95-1.12A7.53,7.53,0,0,0,367.88,271.83Z"/><path class="cls-15" d="M370.92,282.35c-.19-.68-.66-1.18-.91-1.83a1,1,0,0,0-1.9.53,2.9,2.9,0,0,0,1.74,2.37A.88.88,0,0,0,370.92,282.35Z"/><path class="cls-15" d="M390.77,259.74c-.46-1.11-2.22-.71-1.85.51.18.6.36,1.2.52,1.8a8.46,8.46,0,0,0,.6,2,1,1,0,0,0,1.76-.23C392.1,262.43,391.31,261,390.77,259.74Z"/><path class="cls-15" d="M402.64,252.53a56.88,56.88,0,0,1-.29-6.91.7.7,0,0,0-1.37-.18c-.89,4.17-1.52,9.63.59,13.52a1,1,0,0,0,1.84-.5C403.38,256.44,402.86,254.53,402.64,252.53Z"/><path class="cls-15" d="M404.26,261.24a1.1,1.1,0,0,0-1.07-.81,1.12,1.12,0,0,0-1.1,1.11c-.07,1-.21,2.42.86,2.9a1,1,0,0,0,1.2-.15C405,263.41,404.42,262.27,404.26,261.24Z"/><path class="cls-15" d="M416,226.93c-1.41,2-3.66,5.54-1.63,7.79a1.28,1.28,0,0,0,2-.26c.46-1.07.18-2.07.35-3.2a19.7,19.7,0,0,1,1-3.61C418.08,226.58,416.57,226.13,416,226.93Z"/><path class="cls-15" d="M419.59,237.39c0,.17,0,.09,0-.25l-.18-.42c-.09-.18-.09-.13-.09-.33a1.2,1.2,0,1,0-2.4,0,2,2,0,0,0,1.44,2.28A1.05,1.05,0,0,0,419.59,237.39Z"/><path class="cls-15" d="M290.21,237.47c-.52-.42-1.49.13-1,.78a3.73,3.73,0,0,1,.61,1.21c.14.45.14.92.24,1.38a1,1,0,0,0,.71.71,1.23,1.23,0,0,0,.78-.1,1,1,0,0,0,.5-.88A4.52,4.52,0,0,0,290.21,237.47Z"/><path class="cls-15" d="M291.3,243.27c-.36-.53-1.37-.21-1.1.46s.46,1.49,1.18,1.73a.64.64,0,0,0,.8-.61C292.22,244.24,291.63,243.75,291.3,243.27Z"/><path class="cls-15" d="M316,228.86a22.84,22.84,0,0,1-1.22-4,.68.68,0,0,0-1.33.18c.07,2.36.56,5.43,2,7.37.45.61,1.72.51,1.62-.44A12.9,12.9,0,0,0,316,228.86Z"/><path class="cls-15" d="M329.83,224.61a16.21,16.21,0,0,0-1-2.82,25.54,25.54,0,0,1-.82-3.32c-.22-.92-1.41-.59-1.51.21a10.8,10.8,0,0,0,1.83,6.58A.85.85,0,0,0,329.83,224.61Z"/><path class="cls-15" d="M352.09,220.69a8.21,8.21,0,0,0-2.23-2.28.61.61,0,0,0-.89.68,7.54,7.54,0,0,0,1.28,2.09c.5.78.75,1.72,1.27,2.47a.7.7,0,0,0,1.27-.17A3.27,3.27,0,0,0,352.09,220.69Z"/><path class="cls-15" d="M352.63,225.65c-.28-.81-1.61-.72-1.56.21a.82.82,0,0,1,0,.44,1.77,1.77,0,0,0-.19.85.77.77,0,0,0,1,.74A1.61,1.61,0,0,0,352.63,225.65Z"/><path class="cls-15" d="M365.76,222.38a23.17,23.17,0,0,0-.18-3.11c-.11-.76-1.22-.5-1.28.18a24,24,0,0,1-.53,3,3.48,3.48,0,0,0,.07,2.6,1,1,0,0,0,1.71,0A5.59,5.59,0,0,0,365.76,222.38Z"/><path class="cls-15" d="M365.3,227.42a.9.9,0,0,0-1.1-.62.92.92,0,0,0-.62,1.1c.12.72.09,1.47.75,1.92a.71.71,0,0,0,.88-.11C365.79,229.05,365.49,228.19,365.3,227.42Z"/><path class="cls-4" d="M391.22,225.39c-1-2.12-2.11-4.13-2.9-6.37-.58-1.67-1.06-3.39-1.68-5a2.14,2.14,0,1,0-1.4.53h0c.53,2,1.14,3.92,1.74,5.85a20.34,20.34,0,0,0,2.45,5.67c-1.18,1.27-.64,3.92,1.6,3.92C394,230,394,225.56,391.22,225.39Z"/><path class="cls-4" d="M384.9,225.24c1.41-1.85,2.67-3.79,4.28-5.53,1.2-1.29,2.51-2.52,3.68-3.84a2.13,2.13,0,0,0,1.78-.08,2.15,2.15,0,1,0-2.9-.9v0c-1.49,1.38-2.94,2.83-4.37,4.26a20.71,20.71,0,0,0-3.87,4.81c-1.67-.44-3.76,1.26-2.71,3.25C382.14,229.79,386.05,227.78,384.9,225.24Z"/><path class="cls-4" d="M382.09,219.59c2.29.38,4.59.59,6.89,1.2,1.7.46,3.39,1,5.11,1.47a2.12,2.12,0,0,0,.9,1.53,2.15,2.15,0,1,0-.56-3v0c-1.92-.67-3.88-1.27-5.81-1.87a20.37,20.37,0,0,0-6.06-1.18c-.38-1.69-2.87-2.74-4.14-.89C376.78,219.26,380.37,221.79,382.09,219.59Z"/><path class="cls-4" d="M318.67,196c-1-2.12-2.11-4.13-2.89-6.37-.59-1.66-1.06-3.38-1.68-5a2.13,2.13,0,1,0-1.4.54h0c.53,2,1.14,3.92,1.74,5.85a20.51,20.51,0,0,0,2.45,5.67c-1.17,1.27-.64,3.92,1.61,3.92C321.41,200.52,321.46,196.13,318.67,196Z"/><path class="cls-4" d="M312.36,195.81a69.88,69.88,0,0,1,4.28-5.53c1.2-1.29,2.5-2.52,3.68-3.84a2.14,2.14,0,0,0,1.78-.08,2.15,2.15,0,1,0-2.91-.9v0c-1.49,1.38-2.93,2.83-4.36,4.26a20.85,20.85,0,0,0-3.88,4.82c-1.66-.45-3.76,1.25-2.71,3.24C309.6,200.36,313.5,198.35,312.36,195.81Z"/><path class="cls-4" d="M309.54,190.16c2.3.38,4.6.59,6.89,1.2,1.71.46,3.39,1,5.11,1.47a2.14,2.14,0,0,0,.91,1.53,2.15,2.15,0,1,0-.56-3v0c-1.93-.67-3.88-1.27-5.81-1.87a20.43,20.43,0,0,0-6.07-1.18c-.38-1.69-2.86-2.74-4.13-.89C304.23,189.84,307.83,192.36,309.54,190.16Z"/><path class="cls-4" d="M273.78,352.88a67.84,67.84,0,0,1-2.9-6.37c-.59-1.66-1.06-3.39-1.68-5a2.13,2.13,0,1,0-1.4.54h0c.54,2,1.14,3.92,1.74,5.85a20.64,20.64,0,0,0,2.45,5.67c-1.17,1.27-.64,3.92,1.61,3.92C276.51,357.44,276.56,353.05,273.78,352.88Z"/><path class="cls-4" d="M267.46,352.73a69.88,69.88,0,0,1,4.28-5.53c1.2-1.29,2.5-2.52,3.68-3.84a2.14,2.14,0,0,0,1.78-.08,2.15,2.15,0,1,0-2.91-.9v0c-1.49,1.38-2.93,2.83-4.36,4.26a20.55,20.55,0,0,0-3.87,4.82c-1.67-.45-3.77,1.25-2.72,3.24C264.7,357.28,268.61,355.27,267.46,352.73Z"/><path class="cls-4" d="M264.64,347.08c2.3.38,4.6.59,6.89,1.2,1.71.46,3.39,1,5.11,1.47a2.14,2.14,0,0,0,.91,1.53,2.15,2.15,0,1,0-.56-3v0c-1.92-.67-3.88-1.27-5.81-1.87a20.43,20.43,0,0,0-6.07-1.18c-.38-1.69-2.86-2.74-4.13-.89C259.34,346.76,262.93,349.28,264.64,347.08Z"/><path class="cls-4" d="M368.22,363.66c-1-2.12-2.11-4.13-2.9-6.37-.58-1.67-1.06-3.39-1.68-5a2.13,2.13,0,1,0-1.39.53h0c.53,2,1.14,3.92,1.74,5.85a20.64,20.64,0,0,0,2.45,5.67c-1.17,1.27-.64,3.92,1.6,3.92C371,368.22,371,363.83,368.22,363.66Z"/><path class="cls-4" d="M361.9,363.51c1.42-1.85,2.67-3.79,4.29-5.53,1.2-1.29,2.5-2.52,3.67-3.84a2.13,2.13,0,1,0-1.12-1v0c-1.49,1.38-2.94,2.83-4.36,4.26a20.75,20.75,0,0,0-3.88,4.81c-1.67-.44-3.76,1.26-2.71,3.25C359.15,368.06,363.05,366.05,361.9,363.51Z"/><path class="cls-4" d="M359.09,357.86a68.5,68.5,0,0,1,6.89,1.2c1.7.46,3.39,1,5.11,1.47a2.12,2.12,0,0,0,.9,1.53,2.15,2.15,0,1,0-.56-3v0c-1.92-.67-3.87-1.27-5.81-1.87a20.37,20.37,0,0,0-6.06-1.18c-.38-1.69-2.86-2.75-4.13-.89C353.78,357.53,357.38,360.06,359.09,357.86Z"/><path class="cls-4" d="M436.06,306.76c-1-2.11-2.11-4.12-2.9-6.36-.58-1.67-1.06-3.39-1.68-5a2.12,2.12,0,0,0,.76-1.61,2.16,2.16,0,1,0-2.15,2.15h0c.53,2,1.14,3.92,1.74,5.85a20.64,20.64,0,0,0,2.45,5.67c-1.17,1.27-.64,3.91,1.6,3.91C438.8,311.32,438.84,306.93,436.06,306.76Z"/><path class="cls-4" d="M429.74,306.62c1.42-1.86,2.67-3.79,4.28-5.53,1.21-1.3,2.51-2.52,3.68-3.84a2.14,2.14,0,0,0,2.68-3,2.15,2.15,0,0,0-3.8,2v0c-1.49,1.39-2.94,2.84-4.37,4.27a20.55,20.55,0,0,0-3.87,4.81c-1.67-.45-3.76,1.26-2.71,3.24C427,311.16,430.89,309.16,429.74,306.62Z"/><path class="cls-4" d="M426.93,301c2.3.39,4.59.59,6.89,1.21,1.7.46,3.39,1,5.11,1.46a2.12,2.12,0,0,0,.9,1.54,2.15,2.15,0,1,0-.56-3v0c-1.92-.67-3.87-1.28-5.81-1.87a20.38,20.38,0,0,0-6.06-1.19c-.38-1.68-2.86-2.74-4.13-.88C421.62,300.64,425.21,303.16,426.93,301Z"/><path class="cls-4" d="M282.64,268.41a66.52,66.52,0,0,1-2.9-6.36c-.59-1.67-1.06-3.39-1.68-5.05a2.14,2.14,0,0,0,.75-1.61,2.15,2.15,0,1,0-2.15,2.15h0c.53,2,1.13,3.92,1.73,5.85a20.37,20.37,0,0,0,2.46,5.67c-1.18,1.26-.65,3.91,1.6,3.91C285.37,273,285.42,268.58,282.64,268.41Z"/><path class="cls-4" d="M276.32,268.27c1.41-1.86,2.66-3.79,4.28-5.54,1.2-1.29,2.5-2.51,3.68-3.83a2.14,2.14,0,0,0,1.78-.09,2.15,2.15,0,1,0-2.91-.9l0,0c-1.49,1.39-2.94,2.84-4.37,4.27a20.3,20.3,0,0,0-3.87,4.81c-1.67-.45-3.76,1.26-2.72,3.24C273.56,272.81,277.47,270.81,276.32,268.27Z"/><path class="cls-4" d="M273.5,262.61c2.3.39,4.6.59,6.89,1.21,1.71.46,3.4,1,5.11,1.46a2.14,2.14,0,1,0,.35-1.45v0c-1.92-.67-3.88-1.28-5.81-1.87a20.38,20.38,0,0,0-6.06-1.19c-.38-1.68-2.87-2.74-4.14-.89C268.2,262.29,271.79,264.81,273.5,262.61Z"/><path class="cls-5" d="M300.11,211.94a1.52,1.52,0,0,0,0,3A1.52,1.52,0,0,0,300.11,211.94Z"/><path class="cls-5" d="M304.55,206.31a1,1,0,0,0,0,2A1,1,0,0,0,304.55,206.31Z"/><path class="cls-5" d="M349,196.58l-.16,0a1.93,1.93,0,1,0,0,3.71l.16,0A1.9,1.9,0,0,0,349,196.58Z"/><path class="cls-5" d="M375.73,204.21a1,1,0,0,0,0,2.07A1,1,0,0,0,375.73,204.21Z"/><path class="cls-5" d="M410,214.92a.94.94,0,0,0,0,1.87A.94.94,0,0,0,410,214.92Z"/><path class="cls-5" d="M451.72,248.29a.81.81,0,1,0-1.12,1.12,1.32,1.32,0,0,0,.76.29.66.66,0,0,0,.65-.65A1.32,1.32,0,0,0,451.72,248.29Z"/><path class="cls-5" d="M414.57,316.29h-.17a1.54,1.54,0,0,0,0,3.08h.17A1.54,1.54,0,0,0,414.57,316.29Z"/><path class="cls-5" d="M410.29,326.81a.94.94,0,0,0,0,1.88A.94.94,0,0,0,410.29,326.81Z"/><path class="cls-5" d="M335,358.21a1.06,1.06,0,1,0,0,2A1,1,0,0,0,335,358.21Z"/><path class="cls-5" d="M314.86,345.89l-.17,0a1.45,1.45,0,1,0,0,2.79l.17,0A1.43,1.43,0,0,0,314.86,345.89Z"/><path class="cls-5" d="M288.81,353.16a.94.94,0,0,0,0,1.88A.94.94,0,0,0,288.81,353.16Z"/><path class="cls-5" d="M244.17,320.17a1.19,1.19,0,0,0-.95.31,3.16,3.16,0,0,0-.37.45c-.14.41-.19.5-.13.26a1.48,1.48,0,0,0,2,2,3,3,0,0,0,.53-.41A1.55,1.55,0,0,0,244.17,320.17Z"/><path class="cls-5" d="M238.17,304.09a1.42,1.42,0,0,0,0,2.84A1.42,1.42,0,0,0,238.17,304.09Z"/><path class="cls-5" d="M309,271.11a1.21,1.21,0,0,0,0,2.41A1.21,1.21,0,0,0,309,271.11Z"/><path class="cls-5" d="M333.55,258.19l-.08.09a1.51,1.51,0,0,0,0,2.06l.08.1c.9,1.12,2.71.15,2.71-1.13S334.45,257.07,333.55,258.19Z"/><path class="cls-5" d="M348.7,257.34a.61.61,0,0,0,0,1.21A.61.61,0,0,0,348.7,257.34Z"/><path class="cls-5" d="M386.68,245.31a1.69,1.69,0,0,0,0,3.37A1.69,1.69,0,0,0,386.68,245.31Z"/><path class="cls-5" d="M391.81,237.21a1.23,1.23,0,0,0,0,2.46A1.23,1.23,0,0,0,391.81,237.21Z"/><path class="cls-5" d="M66.58,142.77a66.7,66.7,0,0,1-2.9-6.37c-.59-1.66-1.06-3.38-1.68-5a2.13,2.13,0,1,0-1.4.54h0c.54,2,1.14,3.92,1.74,5.86a20.77,20.77,0,0,0,2.45,5.67c-1.17,1.26-.64,3.91,1.61,3.91C69.31,147.33,69.36,142.94,66.58,142.77Z"/><path class="cls-5" d="M60.26,142.62a69.88,69.88,0,0,1,4.28-5.53c1.2-1.29,2.5-2.51,3.68-3.84a2.14,2.14,0,0,0,1.78-.08,2.15,2.15,0,1,0-2.91-.9v0c-1.49,1.38-2.93,2.83-4.36,4.27a20.3,20.3,0,0,0-3.87,4.81c-1.67-.45-3.77,1.25-2.72,3.24C57.5,147.17,61.41,145.16,60.26,142.62Z"/><path class="cls-5" d="M57.44,137a68.55,68.55,0,0,1,6.89,1.21c1.71.45,3.39,1,5.11,1.46a2.14,2.14,0,0,0,.91,1.53,2.15,2.15,0,1,0-.56-3v0c-1.92-.67-3.88-1.27-5.81-1.87a20.75,20.75,0,0,0-6.07-1.18c-.38-1.68-2.86-2.74-4.13-.89C52.14,136.65,55.73,139.17,57.44,137Z"/><path class="cls-5" d="M28.61,353.9c-1-2.12-2.11-4.13-2.9-6.37-.58-1.67-1.06-3.39-1.68-5a2.13,2.13,0,1,0-1.39.53h0c.53,2,1.14,3.92,1.74,5.85a20.64,20.64,0,0,0,2.45,5.67c-1.17,1.27-.64,3.91,1.6,3.91C31.35,358.45,31.39,354.06,28.61,353.9Z"/><path class="cls-5" d="M22.29,353.75c1.42-1.85,2.67-3.79,4.29-5.53,1.2-1.3,2.5-2.52,3.67-3.84a2.13,2.13,0,0,0,1.78-.09,2.15,2.15,0,1,0-2.9-.9v0c-1.49,1.39-2.94,2.84-4.36,4.27a20.54,20.54,0,0,0-3.88,4.81c-1.67-.45-3.76,1.26-2.71,3.25C19.54,358.29,23.44,356.29,22.29,353.75Z"/><path class="cls-5" d="M19.48,348.09c2.3.39,4.6.59,6.89,1.21,1.7.46,3.39,1,5.11,1.47a2.12,2.12,0,0,0,.9,1.53,2.15,2.15,0,1,0-.56-3v0c-1.92-.67-3.87-1.27-5.81-1.87a20.37,20.37,0,0,0-6.06-1.18c-.38-1.69-2.86-2.75-4.13-.89C14.17,347.77,17.77,350.29,19.48,348.09Z"/><path class="cls-5" d="M323.61,42c-1-2.11-2.11-4.12-2.9-6.36-.58-1.67-1-3.39-1.68-5.05a2.12,2.12,0,0,0,.76-1.61,2.15,2.15,0,1,0-2.15,2.15h0c.53,2,1.14,3.92,1.74,5.85a20.64,20.64,0,0,0,2.45,5.67c-1.17,1.26-.64,3.91,1.6,3.91C326.35,46.56,326.4,42.17,323.61,42Z"/><path class="cls-5" d="M317.3,41.86a68.24,68.24,0,0,1,4.28-5.54c1.2-1.29,2.5-2.51,3.67-3.83A2.13,2.13,0,0,0,327,32.4a2.15,2.15,0,1,0-2.9-.9v0c-1.49,1.39-2.93,2.84-4.36,4.27a20.34,20.34,0,0,0-3.88,4.81c-1.66-.45-3.76,1.26-2.71,3.24C314.54,46.4,318.44,44.4,317.3,41.86Z"/><path class="cls-5" d="M314.48,36.2c2.3.39,4.6.59,6.89,1.21,1.7.46,3.39,1,5.11,1.46a2.2,2.2,0,0,0,.9,1.54,2.15,2.15,0,1,0-.55-3l0,0c-1.92-.67-3.87-1.28-5.81-1.87a20.38,20.38,0,0,0-6.06-1.19c-.38-1.68-2.86-2.74-4.13-.89C309.17,35.88,312.77,38.4,314.48,36.2Z"/><path class="cls-5" d="M43.55,159.75c-.81-1.75-1.74-3.4-2.39-5.25-.48-1.37-.87-2.79-1.38-4.15A1.75,1.75,0,0,0,40.4,149a1.77,1.77,0,1,0-1.77,1.77h0c.44,1.62.94,3.23,1.43,4.82a17,17,0,0,0,2,4.67,1.91,1.91,0,0,0,1.32,3.22A1.88,1.88,0,0,0,43.55,159.75Z"/><path class="cls-5" d="M38.35,159.63a56.57,56.57,0,0,1,3.52-4.56c1-1.07,2.06-2.07,3-3.16a1.76,1.76,0,0,0,1.47-.07A1.77,1.77,0,1,0,44,151.1h0c-1.23,1.15-2.42,2.34-3.6,3.52a16.82,16.82,0,0,0-3.19,4A1.9,1.9,0,0,0,35,161.26,1.88,1.88,0,0,0,38.35,159.63Z"/><path class="cls-5" d="M36,155a55.6,55.6,0,0,1,5.67,1c1.41.38,2.8.86,4.21,1.21a1.76,1.76,0,0,0,3.21.8,1.77,1.77,0,1,0-2.92-2v0c-1.58-.56-3.19-1.05-4.79-1.54a16.56,16.56,0,0,0-5-1,1.9,1.9,0,0,0-3.4-.73C31.66,154.7,34.62,156.78,36,155Z"/><path class="cls-5" d="M448.58,173.77a66.52,66.52,0,0,1-2.9-6.36c-.59-1.67-1.06-3.39-1.68-5a2.14,2.14,0,0,0,.75-1.61,2.15,2.15,0,1,0-2.15,2.15h0c.54,2,1.14,3.92,1.74,5.85a20.64,20.64,0,0,0,2.45,5.67c-1.17,1.27-.64,3.91,1.61,3.91C451.31,178.33,451.36,173.94,448.58,173.77Z"/><path class="cls-5" d="M442.26,173.63a68.1,68.1,0,0,1,4.28-5.53c1.2-1.3,2.5-2.52,3.68-3.84a2.14,2.14,0,0,0,1.78-.09,2.15,2.15,0,1,0-2.91-.9v0c-1.48,1.39-2.93,2.84-4.36,4.27a20.3,20.3,0,0,0-3.87,4.81c-1.67-.45-3.77,1.26-2.72,3.24C439.5,178.17,443.41,176.17,442.26,173.63Z"/><path class="cls-5" d="M439.44,168c2.3.39,4.6.59,6.89,1.21,1.71.46,3.39,1,5.11,1.46a2.14,2.14,0,0,0,.91,1.54,2.15,2.15,0,1,0-.56-3v0c-1.92-.67-3.88-1.28-5.81-1.87a20.44,20.44,0,0,0-6.07-1.19c-.38-1.68-2.86-2.74-4.13-.88C434.14,167.65,437.73,170.17,439.44,168Z"/><path class="cls-5" d="M166.6,36.38a49.62,49.62,0,0,1-2.14-4.68c-.43-1.23-.77-2.49-1.23-3.71a1.57,1.57,0,1,0-1,.39h0c.39,1.45.84,2.88,1.28,4.31a15.09,15.09,0,0,0,1.8,4.17,1.71,1.71,0,0,0,1.18,2.88A1.69,1.69,0,0,0,166.6,36.38Z"/><path class="cls-5" d="M162,36.28a50.86,50.86,0,0,1,3.15-4.07c.88-1,1.84-1.86,2.7-2.83a1.58,1.58,0,0,0,1.31-.06,1.58,1.58,0,1,0-2.13-.66h0c-1.1,1-2.16,2.09-3.22,3.14a15.08,15.08,0,0,0-2.85,3.54,1.71,1.71,0,0,0-2,2.39A1.68,1.68,0,0,0,162,36.28Z"/><path class="cls-5" d="M159.88,32.11c1.69.29,3.38.44,5.07.89,1.25.34,2.49.77,3.76,1.08a1.58,1.58,0,0,0,.66,1.13A1.58,1.58,0,1,0,169,33h0c-1.41-.49-2.85-.93-4.27-1.37a15,15,0,0,0-4.46-.87,1.71,1.71,0,0,0-3-.66A1.68,1.68,0,0,0,159.88,32.11Z"/><path class="cls-5" d="M124.85,352a51,51,0,0,1-2.14-4.69c-.43-1.23-.78-2.49-1.23-3.71a1.57,1.57,0,1,0-1,.4h0c.39,1.45.83,2.89,1.28,4.31a15.09,15.09,0,0,0,1.8,4.17,1.71,1.71,0,0,0,1.18,2.88A1.68,1.68,0,0,0,124.85,352Z"/><path class="cls-5" d="M120.2,351.85a50.86,50.86,0,0,1,3.15-4.07c.88-.95,1.84-1.85,2.7-2.83a1.58,1.58,0,1,0-.16-2.86,1.6,1.6,0,0,0-.67,2.14h0c-1.09,1-2.16,2.09-3.21,3.14a15.28,15.28,0,0,0-2.85,3.54,1.71,1.71,0,0,0-2,2.39A1.68,1.68,0,0,0,120.2,351.85Z"/><path class="cls-5" d="M118.12,347.69c1.7.28,3.39.43,5.08.88,1.25.34,2.49.77,3.75,1.08a1.57,1.57,0,1,0,.26-1.07v0c-1.41-.5-2.85-.94-4.27-1.38a15,15,0,0,0-4.46-.87,1.71,1.71,0,0,0-3-.66A1.68,1.68,0,0,0,118.12,347.69Z"/><path class="cls-5" d="M457.12,360.79c-.72-1.56-1.55-3-2.13-4.69-.43-1.22-.78-2.49-1.24-3.71a1.57,1.57,0,0,0,.56-1.19,1.59,1.59,0,1,0-1.59,1.59h0c.39,1.45.84,2.89,1.28,4.31a14.83,14.83,0,0,0,1.81,4.17,1.7,1.7,0,0,0,1.17,2.88A1.68,1.68,0,0,0,457.12,360.79Z"/><path class="cls-5" d="M452.47,360.68a50.86,50.86,0,0,1,3.15-4.07c.89-.95,1.84-1.85,2.71-2.83a1.58,1.58,0,0,0,1.31-.06,1.58,1.58,0,1,0-2.14-.66h0c-1.1,1-2.16,2.09-3.21,3.14a15,15,0,0,0-2.85,3.54,1.71,1.71,0,0,0-2,2.39A1.68,1.68,0,0,0,452.47,360.68Z"/><path class="cls-5" d="M450.4,356.52a49.85,49.85,0,0,1,5.07.89c1.25.33,2.5.76,3.76,1.07a1.57,1.57,0,0,0,.67,1.13,1.58,1.58,0,1,0-.41-2.2v0c-1.42-.5-2.86-.94-4.28-1.38a15,15,0,0,0-4.46-.87,1.71,1.71,0,0,0-3-.66A1.68,1.68,0,0,0,450.4,356.52Z"/><path class="cls-5" d="M341.45,65.25c-.72-1.56-1.55-3-2.13-4.69-.43-1.22-.78-2.49-1.24-3.71a1.57,1.57,0,0,0,.56-1.19,1.59,1.59,0,1,0-1.59,1.59h0c.39,1.45.84,2.89,1.28,4.31a14.83,14.83,0,0,0,1.81,4.17,1.7,1.7,0,0,0,1.17,2.88A1.68,1.68,0,0,0,341.45,65.25Z"/><path class="cls-5" d="M336.8,65.14A50.86,50.86,0,0,1,340,61.07c.89-1,1.84-1.85,2.71-2.83a1.55,1.55,0,0,0,1.31-.06,1.58,1.58,0,1,0-2.14-.66h0c-1.1,1-2.16,2.09-3.21,3.14a15.23,15.23,0,0,0-2.85,3.54,1.71,1.71,0,0,0-2,2.39A1.68,1.68,0,0,0,336.8,65.14Z"/><path class="cls-5" d="M334.73,61a49.85,49.85,0,0,1,5.07.89c1.25.33,2.5.76,3.76,1.07a1.55,1.55,0,0,0,.67,1.13,1.58,1.58,0,1,0-.42-2.2v0c-1.42-.5-2.86-.94-4.28-1.38a15,15,0,0,0-4.46-.87,1.71,1.71,0,0,0-3-.66A1.68,1.68,0,0,0,334.73,61Z"/><path class="cls-5" d="M235.15.23A4,4,0,0,0,230.44,2a3.94,3.94,0,1,0,7.2,3A4,4,0,0,0,235.15.23Z"/><path class="cls-5" d="M224.82,19.58a1.58,1.58,0,0,0-1.1,2.67l.32.36a1.12,1.12,0,0,0,1.57,0l.32-.36A1.58,1.58,0,0,0,224.82,19.58Z"/><path class="cls-5" d="M58,94a3.72,3.72,0,0,0-.22-.38,1.53,1.53,0,0,0-2.62,0l-.22.38A1.77,1.77,0,1,0,58,94Z"/><path class="cls-5" d="M33.17,193.11a2.94,2.94,0,0,0-2-2,2.8,2.8,0,0,0-2.74.72,3,3,0,0,0-.76,1.36l-.06.13v-.06a.17.17,0,0,1,0,.07,2.5,2.5,0,0,0,.5,2.56,2.9,2.9,0,0,0,3,.93A3,3,0,0,0,33.17,193.11Z"/><path class="cls-5" d="M44.83,297c-6.15,0-6.15,9.53,0,9.53S51,297,44.83,297Z"/><path class="cls-5" d="M53,319.45l-.21-.28a2.14,2.14,0,0,0-2.36-1,2.09,2.09,0,0,0,0,4,2.14,2.14,0,0,0,2.36-1L53,321A1.49,1.49,0,0,0,53,319.45Z"/><path class="cls-5" d="M225.75,359.12l-.12-.08a2.58,2.58,0,0,0-2.64,0l-.13.07a2.55,2.55,0,0,0,0,4.36l.13.07a2.62,2.62,0,0,0,2.64,0l.12-.09A2.54,2.54,0,0,0,225.75,359.12Z"/><path class="cls-5" d="M459.17,328.37l-.25.08h0a2,2,0,0,0-1.77,1,2,2,0,0,0,2.31,3,2,2,0,0,0,1.5-2v0l.08-.25A1.5,1.5,0,0,0,459.17,328.37Z"/><path class="cls-5" d="M461.62,205.54a1.76,1.76,0,0,0,0,3.52A1.76,1.76,0,0,0,461.62,205.54Z"/><path class="cls-5" d="M391.35,120.14a8.27,8.27,0,0,0-.9-1.13,3.92,3.92,0,0,0-5.48,0,7.57,7.57,0,0,0-.9,1.13,4.15,4.15,0,0,0,0,4.25,4.21,4.21,0,0,0,7.28,0A4.15,4.15,0,0,0,391.35,120.14Z"/><path class="cls-5" d="M374.16,97.07l-.52-.27a2,2,0,1,0,0,3.36l.52-.27A1.64,1.64,0,0,0,374.16,97.07Z"/><path class="cls-5" d="M287.87,120.89l-.48.11a1.5,1.5,0,0,0,0,2.87l.48.11a1.6,1.6,0,1,0,0-3.09Z"/><path class="cls-5" d="M347.33,34.08a2.15,2.15,0,0,0-1.83,3.19l.27.53a1.83,1.83,0,0,0,3.12,0l.27-.53A2.15,2.15,0,0,0,347.33,34.08Z"/><path class="cls-5" d="M132,9.74l-.17-.41v0a2.11,2.11,0,0,0-.88-.94,1.75,1.75,0,0,0-2.72.29,2.34,2.34,0,0,0,.76,3.27,2,2,0,0,0,2.46-.32,2.67,2.67,0,0,0,.56-1A1.57,1.57,0,0,0,132,9.74Z"/></g></g></svg>