<svg xmlns="http://www.w3.org/2000/svg" viewBox="0 0 151.3 156.49"><defs><style>.cls-1{fill:#d08b2e;stroke:#ba782a;stroke-linecap:round;stroke-linejoin:round;stroke-width:1.3px;}.cls-2{fill:#e2a145;}.cls-3{fill:#492a10;}.cls-4{fill:#28170c;}.cls-5{fill:#f4bb6e;}.cls-6{fill:#c60a13;}.cls-7{fill:#dd1f29;}.cls-8{fill:#34902d;}.cls-9{fill:#297a20;}.cls-10{fill:#fff;}.cls-11{fill:#ededed;}</style></defs><title>lose</title><g id="Слой_2" data-name="Слой 2"><g id="Слой_1-2" data-name="Слой 1"><path class="cls-1" d="M107,155.84a9.23,9.23,0,0,1-2.14-.24c-11.15-2.66-24.08-20-29.21-27.44-5.13,7.46-18.05,24.78-29.21,27.44a9.23,9.23,0,0,1-2.14.24c-8.12,0-19.53-9.55-25.1-18.47-4-6.42-5-12.36-2.91-16.71,3.31-6.77,9.72-7.78,13.25-7.78.49,0,.94,0,1.32.05,4.25-8,6.88-19.43,8.36-27.84a.94.94,0,0,0-.55-1L11,72a17.31,17.31,0,0,1,7.05-33.19,18,18,0,0,1,7.27,1.52l20.76,9.1A33.31,33.31,0,0,1,75.65.65c.78,0,1.56,0,2.34.08a33.31,33.31,0,0,1,27.19,48.66l20.76-9.1a18,18,0,0,1,7.27-1.52,17.32,17.32,0,0,1,7,33.19L112.63,84.07a.94.94,0,0,0-.55,1c1.48,8.41,4.11,19.86,8.36,27.84.38,0,.83-.05,1.32-.05,3.53,0,9.94,1,13.26,7.78,2.12,4.35,1.09,10.29-2.92,16.71C126.53,146.29,115.12,155.84,107,155.84Z"/><path class="cls-2" d="M146.4,48.27a15.52,15.52,0,0,0-19.6-6L103.65,52.4a1.28,1.28,0,0,1-1.6-1.86,31.18,31.18,0,1,0-52.8,0,1.28,1.28,0,0,1-1.6,1.86L24.5,42.25a15.52,15.52,0,0,0-19.6,6A15.28,15.28,0,0,0,11.9,70L39.53,82.11a3.08,3.08,0,0,1,1.8,3.35C39.69,94.72,36.8,107,32,115.22c0,0-9.75-2-13.83,6.38C12.56,133.14,35.64,156,46,153.52c10.6-2.53,23.48-20.07,28-26.69a2,2,0,0,1,3.36,0c4.54,6.62,17.42,24.16,28,26.69,10.31,2.45,33.39-20.38,27.74-31.92-4.08-8.35-13.83-6.38-13.83-6.38-4.76-8.19-7.65-20.5-9.29-29.76a3.08,3.08,0,0,1,1.8-3.35L139.4,70A15.28,15.28,0,0,0,146.4,48.27Z"/><path class="cls-3" d="M94.81,27a4.55,4.55,0,1,1-4.55-4.55A4.55,4.55,0,0,1,94.81,27Z"/><path class="cls-4" d="M91,22.49a4.55,4.55,0,0,1-3.27,7.71,4.41,4.41,0,0,1-.73-.08,4.54,4.54,0,1,0,4-7.63Z"/><path class="cls-3" d="M65.59,27A4.55,4.55,0,1,1,61,22.42,4.55,4.55,0,0,1,65.59,27Z"/><path class="cls-4" d="M61.77,22.49A4.55,4.55,0,0,1,58.5,30.2a4.41,4.41,0,0,1-.73-.08,4.54,4.54,0,1,0,4-7.63Z"/><path class="cls-3" d="M75.65,32.8a10.91,10.91,0,0,1,10.9,10.9,1.61,1.61,0,0,1-3.21,0A7.69,7.69,0,1,0,68,43.7a1.61,1.61,0,0,1-3.21,0A10.91,10.91,0,0,1,75.65,32.8Z"/><path class="cls-5" d="M49,39.27A36.83,36.83,0,0,1,70.78,6,28,28,0,0,0,49.53,45.26,36.24,36.24,0,0,1,49,39.27Z"/><path class="cls-6" d="M82,102.09h0A12.88,12.88,0,0,1,69.14,89.26V68.84A12.88,12.88,0,0,1,82,56h0A12.87,12.87,0,0,1,94.81,68.84V89.26A12.87,12.87,0,0,1,82,102.09Z"/><rect class="cls-7" x="43.57" y="49.03" width="64.17" height="21.52" rx="2.01"/><path class="cls-6" d="M98.6,49h0a.57.57,0,0,0-.5.84A8.39,8.39,0,0,1,99.18,54v3.83A9.16,9.16,0,0,1,90.05,67H46.4a.57.57,0,0,0-.42,1,8.51,8.51,0,0,0,6.14,2.62H98.6a9.15,9.15,0,0,0,9.13-9.13V58.16A9.15,9.15,0,0,0,98.6,49Z"/><path class="cls-8" d="M121.76,120.37a10.74,10.74,0,0,0-1.44.09h0l-3.75.76-1.93-3.31a60.77,60.77,0,0,1-4.32-9.51,6.45,6.45,0,0,0-7.45-4.08,126.52,126.52,0,0,1-27.22,2.93,126.52,126.52,0,0,1-27.22-2.93A6.45,6.45,0,0,0,41,108.4a60.77,60.77,0,0,1-4.32,9.51l-1.87,3.32L31,120.47a10.18,10.18,0,0,0-1.49-.1c-4.77,0-6.1,2.7-6.53,3.58-.91,1.86.06,5.49,2.54,9.46,5.17,8.28,14.48,14.94,18.75,14.94a1.47,1.47,0,0,0,.41,0c5.84-1.39,15.59-11,24.85-24.51a7.38,7.38,0,0,1,12.18,0c9.26,13.5,19,23.12,24.85,24.51a1.47,1.47,0,0,0,.41,0c4.27,0,13.58-6.66,18.75-14.94,2.48-4,3.45-7.6,2.54-9.46C127.86,123.07,126.53,120.37,121.76,120.37Z"/><path class="cls-9" d="M128.29,124c-.43-.88-1.76-3.58-6.53-3.58a10.74,10.74,0,0,0-1.44.09h0l-3.75.76-1.93-3.31a60.77,60.77,0,0,1-4.32-9.51,6.45,6.45,0,0,0-7.45-4.08,126.52,126.52,0,0,1-27.22,2.93A128.52,128.52,0,0,1,57,105.89a128,128,0,0,0,15.74,2.25,126.37,126.37,0,0,0,27.36-.74,6.44,6.44,0,0,1,7.11,4.67,59.3,59.3,0,0,0,3.54,9.82l.92,1.91a2.38,2.38,0,0,0,2.44,1.34l2.1-.25h0a9.63,9.63,0,0,1,1.44,0c4.76.38,5.86,3.18,6.22,4.1.76,1.93-.5,5.46-3.29,9.22a41.23,41.23,0,0,1-8.62,8.44,41,41,0,0,0,13.77-13.26C128.23,129.44,129.2,125.81,128.29,124Z"/><path class="cls-10" d="M134.89,74.43a2.15,2.15,0,0,1-2-1.26,9.68,9.68,0,0,0-1.28-.2c-1.38-.16-3.68-.42-4.7-2.69s.32-4.17,1.12-5.3a8,8,0,0,0,.67-1.07,7.85,7.85,0,0,0-1.25-.22c-1.37-.15-3.68-.42-4.69-2.69s.32-4.17,1.11-5.3a8,8,0,0,0,.68-1.06,7.07,7.07,0,0,0-1.25-.21c-1.37-.16-3.68-.43-4.69-2.7s.32-4.16,1.11-5.29a5.34,5.34,0,0,0,.71-1.17,2.09,2.09,0,0,1,1.08-2.79,2.16,2.16,0,0,1,2.83,1.12c1,2.27-.32,4.17-1.12,5.3a7.37,7.37,0,0,0-.67,1.07,8,8,0,0,0,1.24.21c1.38.15,3.68.42,4.7,2.69s-.32,4.16-1.12,5.3a7.89,7.89,0,0,0-.67,1.06,7,7,0,0,0,1.24.21c1.38.16,3.68.43,4.7,2.7s-.32,4.17-1.11,5.3a7.5,7.5,0,0,0-.68,1.07,6.91,6.91,0,0,0,1.25.21c1.38.16,3.68.43,4.7,2.7a2.15,2.15,0,0,1-1.08,2.83A2.22,2.22,0,0,1,134.89,74.43Z"/><path class="cls-11" d="M136.84,71.42c-1-2.27-3.32-2.54-4.7-2.7a6.91,6.91,0,0,1-1.25-.21,7.5,7.5,0,0,1,.68-1.07c.79-1.13,2.13-3,1.11-5.3s-3.32-2.54-4.7-2.7a7,7,0,0,1-1.24-.21,7.89,7.89,0,0,1,.67-1.06c.8-1.14,2.14-3,1.12-5.3s-3.32-2.54-4.7-2.69a8,8,0,0,1-1.24-.21,7.37,7.37,0,0,1,.67-1.07c.8-1.13,2.14-3,1.12-5.3a2.16,2.16,0,0,0-2.83-1.12,2,2,0,0,0-.63.44,2.21,2.21,0,0,1,1.86,1.28c1,2.27-.32,4.17-1.12,5.3a6.59,6.59,0,0,0-.67,1.07,6.79,6.79,0,0,0,1.24.21c1.37.16,3.68.42,4.7,2.69s-.32,4.17-1.12,5.3a6.59,6.59,0,0,0-.67,1.07,9.1,9.1,0,0,0,1.24.21c1.38.15,3.68.42,4.7,2.69s-.32,4.17-1.12,5.3a7.05,7.05,0,0,0-.67,1.07,7.85,7.85,0,0,0,1.25.22c1.37.15,3.68.42,4.69,2.69a2.13,2.13,0,0,1-.46,2.4h.12a2.22,2.22,0,0,0,.87-.18A2.15,2.15,0,0,0,136.84,71.42Z"/><path class="cls-10" d="M16.41,74.43a2.15,2.15,0,0,0,2-1.26,9.68,9.68,0,0,1,1.28-.2c1.38-.16,3.68-.42,4.7-2.69S24,66.11,23.23,65a8,8,0,0,1-.67-1.07,7.85,7.85,0,0,1,1.25-.22c1.37-.15,3.68-.42,4.69-2.69s-.32-4.17-1.12-5.3a9,9,0,0,1-.67-1.06A7.07,7.07,0,0,1,28,54.43c1.37-.16,3.68-.43,4.69-2.7s-.32-4.16-1.11-5.29a5.34,5.34,0,0,1-.71-1.17,2.09,2.09,0,0,0-1.08-2.79,2.16,2.16,0,0,0-2.83,1.12c-1,2.27.32,4.17,1.12,5.3A7.37,7.37,0,0,1,28.71,50a8,8,0,0,1-1.24.21c-1.38.15-3.68.42-4.7,2.69s.32,4.16,1.12,5.3a7.89,7.89,0,0,1,.67,1.06,7,7,0,0,1-1.24.21c-1.38.16-3.68.43-4.7,2.7s.32,4.17,1.11,5.3a7.5,7.5,0,0,1,.68,1.07,6.91,6.91,0,0,1-1.25.21c-1.38.16-3.68.43-4.7,2.7a2.15,2.15,0,0,0,1.08,2.83A2.22,2.22,0,0,0,16.41,74.43Z"/><path class="cls-11" d="M14.46,71.42c1-2.27,3.32-2.54,4.7-2.7a6.91,6.91,0,0,0,1.25-.21,7.5,7.5,0,0,0-.68-1.07c-.79-1.13-2.13-3-1.11-5.3s3.32-2.54,4.7-2.7a7,7,0,0,0,1.24-.21,7.89,7.89,0,0,0-.67-1.06c-.8-1.14-2.14-3-1.12-5.3s3.32-2.54,4.7-2.69A8,8,0,0,0,28.71,50,7.37,7.37,0,0,0,28,48.9c-.8-1.13-2.14-3-1.12-5.3a2.11,2.11,0,0,1,3.46-.68,2.21,2.21,0,0,0-1.86,1.28c-1,2.27.32,4.17,1.12,5.3a6.59,6.59,0,0,1,.67,1.07,6.79,6.79,0,0,1-1.24.21c-1.37.16-3.68.42-4.7,2.69s.32,4.17,1.12,5.3a6.59,6.59,0,0,1,.67,1.07,9.1,9.1,0,0,1-1.24.21c-1.38.15-3.68.42-4.7,2.69s.32,4.17,1.12,5.3A7.05,7.05,0,0,1,22,69.11a7.85,7.85,0,0,1-1.25.22c-1.37.15-3.68.42-4.69,2.69a2.13,2.13,0,0,0,.46,2.4h-.12a2.22,2.22,0,0,1-.87-.18A2.15,2.15,0,0,1,14.46,71.42Z"/></g></g></svg>