<svg xmlns="http://www.w3.org/2000/svg" viewBox="0 0 141.56 146.41"><defs><style>.cls-1{fill:#d08b2e;stroke:#ba782a;stroke-linecap:round;stroke-linejoin:round;stroke-width:1.3px;}.cls-2{fill:#e2a145;}.cls-3{fill:#d5191a;}.cls-4{fill:#c60a13;}.cls-5{fill:#f43752;opacity:0.84;}.cls-6{fill:#492a10;}.cls-7{fill:#28170c;}.cls-8{fill:#fff;}.cls-9{fill:#ededed;}.cls-10{fill:#f4bb6e;}</style></defs><title>win</title><g id="Слой_2" data-name="Слой 2"><g id="Слой_1-2" data-name="Слой 1"><path class="cls-1" d="M100.1,145.76a8.65,8.65,0,0,1-2-.23c-10.43-2.48-22.51-18.68-27.31-25.66-4.8,7-16.89,23.18-27.31,25.66a8.72,8.72,0,0,1-2,.23c-7.59,0-18.26-8.93-23.46-17.27-3.75-6-4.72-11.56-2.73-15.62,3.1-6.33,9.1-7.28,12.4-7.28.45,0,.87,0,1.23,0,4-7.45,6.43-18.16,7.82-26a.89.89,0,0,0-.52-1L10.36,67.33a16.19,16.19,0,0,1,6.6-31,16.71,16.71,0,0,1,6.79,1.43l19.42,8.51A31.16,31.16,0,0,1,70.78.65c.72,0,1.46,0,2.19.08A31.14,31.14,0,0,1,98.39,46.22l19.41-8.5a16.8,16.8,0,0,1,6.8-1.43,16.2,16.2,0,0,1,6.59,31L105.36,78.65a.88.88,0,0,0-.52,1c1.39,7.86,3.85,18.57,7.82,26,.36,0,.77,0,1.23,0,3.3,0,9.3,1,12.4,7.28,2,4.06,1,9.61-2.73,15.62C118.36,136.83,107.69,145.76,100.1,145.76Z"/><path class="cls-2" d="M136.93,45.18a14.5,14.5,0,0,0-18.32-5.63L97,49a1.2,1.2,0,0,1-1.49-1.75,29.15,29.15,0,1,0-49.38,0A1.2,1.2,0,0,1,44.6,49L23,39.55A14.5,14.5,0,0,0,4.63,45.18,14.28,14.28,0,0,0,11.17,65.5L37,76.82A2.88,2.88,0,0,1,38.69,80c-1.53,8.66-4.24,20.17-8.69,27.83,0,0-9.11-1.84-12.93,6C11.79,124.54,33.36,145.88,43,143.59c9.92-2.36,22-18.77,26.21-25a1.9,1.9,0,0,1,3.14,0c4.24,6.19,16.29,22.6,26.2,25,9.64,2.29,31.22-19,25.94-29.84-3.82-7.81-12.93-6-12.93-6-4.45-7.66-7.16-19.17-8.69-27.83a2.88,2.88,0,0,1,1.69-3.13L130.39,65.5A14.29,14.29,0,0,0,136.93,45.18Z"/><circle class="cls-3" cx="70.78" cy="62.59" r="7.16"/><path class="cls-4" d="M73.11,55.83a7.14,7.14,0,0,1-5.33,11.92,7.28,7.28,0,0,1-2.34-.4,7.15,7.15,0,1,0,7.67-11.52Z"/><path class="cls-5" d="M65.89,61a2.85,2.85,0,1,0,2.85-2.84A2.85,2.85,0,0,0,65.89,61Z"/><circle class="cls-3" cx="70.78" cy="80.36" r="7.16"/><path class="cls-4" d="M73.11,73.6a7.14,7.14,0,0,1-5.33,11.92,7.28,7.28,0,0,1-2.34-.4A7.15,7.15,0,1,0,73.11,73.6Z"/><path class="cls-5" d="M65.89,78.81A2.85,2.85,0,1,0,68.74,76,2.85,2.85,0,0,0,65.89,78.81Z"/><circle class="cls-3" cx="70.78" cy="98.13" r="7.16"/><path class="cls-4" d="M73.11,91.37a7.14,7.14,0,0,1-5.33,11.92,7.28,7.28,0,0,1-2.34-.4,7.15,7.15,0,1,0,7.67-11.52Z"/><path class="cls-5" d="M65.89,96.58a2.85,2.85,0,1,0,2.85-2.85A2.85,2.85,0,0,0,65.89,96.58Z"/><path class="cls-6" d="M88.7,25.26A4.26,4.26,0,1,1,84.44,21,4.26,4.26,0,0,1,88.7,25.26Z"/><path class="cls-7" d="M85.12,21.07a4.25,4.25,0,0,1-3.06,7.21,3.82,3.82,0,0,1-.68-.07,4.25,4.25,0,1,0,3.74-7.14Z"/><path class="cls-6" d="M61.37,25.26A4.26,4.26,0,1,1,57.12,21,4.25,4.25,0,0,1,61.37,25.26Z"/><path class="cls-7" d="M57.8,21.07a4.25,4.25,0,0,1-3.06,7.21,3.82,3.82,0,0,1-.68-.07,4.25,4.25,0,1,0,3.74-7.14Z"/><path class="cls-6" d="M70.78,42.4A10.2,10.2,0,0,1,60.59,32.22a1.5,1.5,0,0,1,3,0,7.19,7.19,0,0,0,14.38,0,1.5,1.5,0,0,1,3,0A10.2,10.2,0,0,1,70.78,42.4Z"/><path class="cls-8" d="M126.17,69.6a2,2,0,0,1-1.83-1.19,11.48,11.48,0,0,0-1.2-.18c-1.29-.15-3.44-.4-4.39-2.52s.3-3.9,1-5a6.48,6.48,0,0,0,.63-1,8.17,8.17,0,0,0-1.16-.2c-1.29-.14-3.45-.39-4.4-2.51s.3-3.9,1-5a7.35,7.35,0,0,0,.63-1,7.2,7.2,0,0,0-1.16-.19c-1.29-.15-3.45-.4-4.4-2.52s.3-3.89,1-4.95a4.85,4.85,0,0,0,.65-1.1,2,2,0,0,1,1-2.6,2,2,0,0,1,2.64,1.05c1,2.12-.3,3.89-1,4.95a6.48,6.48,0,0,0-.63,1,7,7,0,0,0,1.16.19c1.29.15,3.44.4,4.39,2.52s-.3,3.9-1,5a6.43,6.43,0,0,0-.63,1,6.06,6.06,0,0,0,1.16.2c1.29.15,3.44.4,4.4,2.52s-.3,3.9-1,5a7.35,7.35,0,0,0-.63,1,7.28,7.28,0,0,0,1.17.2c1.29.15,3.44.39,4.39,2.52a2,2,0,0,1-1,2.64A2,2,0,0,1,126.17,69.6Z"/><path class="cls-9" d="M128,66.78c-.95-2.13-3.1-2.37-4.39-2.52a7.28,7.28,0,0,1-1.17-.2,7.35,7.35,0,0,1,.63-1c.75-1.06,2-2.84,1-5s-3.11-2.37-4.4-2.52a6.06,6.06,0,0,1-1.16-.2,6.43,6.43,0,0,1,.63-1c.74-1.06,2-2.83,1-5s-3.1-2.37-4.39-2.52a7,7,0,0,1-1.16-.19,6.48,6.48,0,0,1,.63-1c.74-1.06,2-2.83,1-4.95a2,2,0,0,0-2.64-1.05,2.13,2.13,0,0,0-.76.59A2.06,2.06,0,0,1,115,41.5c.95,2.13-.3,3.9-1.05,5a7.21,7.21,0,0,0-.62,1,7,7,0,0,0,1.16.19c1.29.15,3.44.4,4.39,2.52s-.3,3.89-1,4.95a7.21,7.21,0,0,0-.62,1,7,7,0,0,0,1.16.2c1.29.15,3.44.39,4.39,2.52s-.3,3.89-1,4.95a6.54,6.54,0,0,0-.63,1,7,7,0,0,0,1.17.19c1.28.15,3.44.4,4.39,2.52a2,2,0,0,1-.27,2.06,1.77,1.77,0,0,0,.59-.15A2,2,0,0,0,128,66.78Z"/><path class="cls-8" d="M15.39,69.6a2,2,0,0,0,1.83-1.19,11.06,11.06,0,0,1,1.2-.18c1.28-.15,3.44-.4,4.39-2.52s-.3-3.9-1-5a6.48,6.48,0,0,1-.63-1,8.17,8.17,0,0,1,1.16-.2c1.29-.14,3.44-.39,4.39-2.51s-.29-3.9-1-5a6.48,6.48,0,0,1-.63-1,7.2,7.2,0,0,1,1.16-.19c1.29-.15,3.44-.4,4.39-2.52s-.29-3.89-1-4.95a4.59,4.59,0,0,1-.66-1.1,2,2,0,0,0-1-2.6,2,2,0,0,0-2.65,1.05c-.95,2.12.3,3.89,1.05,4.95a7.35,7.35,0,0,1,.63,1,7.2,7.2,0,0,1-1.16.19c-1.29.15-3.45.4-4.4,2.52s.3,3.9,1.05,5a7.29,7.29,0,0,1,.63,1,6.18,6.18,0,0,1-1.17.2c-1.28.15-3.44.4-4.39,2.52s.3,3.9,1.05,5a7.21,7.21,0,0,1,.62,1,7,7,0,0,1-1.16.2c-1.29.15-3.44.39-4.4,2.52a2,2,0,0,0,1,2.64A2,2,0,0,0,15.39,69.6Z"/><path class="cls-8" d="M84.09,135.66a2.47,2.47,0,0,1-1.75-4.21,6.39,6.39,0,0,1,5.57-1.66c1.23.1,1.4.05,1.68-.23s.32-.45.22-1.68A6.1,6.1,0,0,1,97,120.66c1.23.1,1.4,0,1.68-.23s.32-.45.22-1.68a6.11,6.11,0,0,1,7.22-7.23c1.23.09,1.41,0,1.69-.24s.33-.45.23-1.68a6.38,6.38,0,0,1,1.65-5.57,2.47,2.47,0,0,1,3.49,3.49c-.27.27-.32.45-.22,1.68a6.11,6.11,0,0,1-7.23,7.23c-1.23-.09-1.4,0-1.68.23s-.33.46-.23,1.69a6.35,6.35,0,0,1-1.65,5.57,6.43,6.43,0,0,1-5.57,1.66c-1.22-.1-1.4,0-1.68.22s-.32.45-.22,1.68a6.1,6.1,0,0,1-7.21,7.23c-1.24-.1-1.41-.05-1.69.23A2.45,2.45,0,0,1,84.09,135.66Z"/><path class="cls-8" d="M84.09,135.66a2.47,2.47,0,0,1-1.75-4.21,6.39,6.39,0,0,1,5.57-1.66c1.23.1,1.4.05,1.68-.23s.32-.45.22-1.68A6.1,6.1,0,0,1,97,120.66c1.23.1,1.4,0,1.68-.23s.32-.45.22-1.68a6.11,6.11,0,0,1,7.22-7.23c1.23.09,1.41,0,1.69-.24s.33-.45.23-1.68a6.38,6.38,0,0,1,1.65-5.57,2.47,2.47,0,0,1,3.49,3.49c-.27.27-.32.45-.22,1.68a6.11,6.11,0,0,1-7.23,7.23c-1.23-.09-1.4,0-1.68.23s-.33.46-.23,1.69a6.35,6.35,0,0,1-1.65,5.57,6.43,6.43,0,0,1-5.57,1.66c-1.22-.1-1.4,0-1.68.22s-.32.45-.22,1.68a6.1,6.1,0,0,1-7.21,7.23c-1.24-.1-1.41-.05-1.69.23A2.45,2.45,0,0,1,84.09,135.66Z"/><path class="cls-9" d="M113.21,104a2.46,2.46,0,0,0-.6-.43,2.47,2.47,0,0,1-.52,2.71c-.28.28-.33.45-.23,1.68a6.1,6.1,0,0,1-7.22,7.23c-1.23-.09-1.41,0-1.69.24s-.32.45-.22,1.68a6.11,6.11,0,0,1-7.22,7.23c-1.23-.1-1.4-.05-1.68.22s-.33.46-.23,1.68a6.1,6.1,0,0,1-7.21,7.23c-1.23-.1-1.4-.05-1.68.23a2.45,2.45,0,0,1-2.89.43,2.35,2.35,0,0,0,.53.78,2.46,2.46,0,0,0,3.48,0c.28-.28.45-.33,1.69-.23a6.1,6.1,0,0,0,7.21-7.23c-.1-1.23,0-1.4.22-1.68s.46-.32,1.68-.22a6.43,6.43,0,0,0,5.57-1.66,6.35,6.35,0,0,0,1.65-5.57c-.1-1.23,0-1.41.23-1.69s.45-.32,1.68-.23A6.11,6.11,0,0,0,113,109.2c-.1-1.23,0-1.41.22-1.68A2.46,2.46,0,0,0,113.21,104Z"/><path class="cls-8" d="M57.47,135.66a2.47,2.47,0,0,0,1.74-4.21,6.37,6.37,0,0,0-5.56-1.66c-1.23.1-1.41.05-1.68-.23s-.33-.45-.23-1.68a6.09,6.09,0,0,0-7.21-7.22c-1.23.1-1.41,0-1.68-.23s-.33-.45-.23-1.68a6.1,6.1,0,0,0-7.22-7.23c-1.23.09-1.41,0-1.68-.24s-.33-.45-.23-1.68A6.36,6.36,0,0,0,31.83,104a2.47,2.47,0,0,0-3.49,3.49c.28.27.33.45.23,1.68a6.11,6.11,0,0,0,7.22,7.23c1.24-.09,1.41,0,1.69.23s.32.46.23,1.69a6.1,6.1,0,0,0,7.21,7.23c1.23-.1,1.41,0,1.68.22s.33.45.23,1.68A6.1,6.1,0,0,0,54,134.71c1.23-.1,1.41-.05,1.68.23A2.48,2.48,0,0,0,57.47,135.66Z"/><path class="cls-10" d="M46.51,37.07A34.44,34.44,0,0,1,66.87,5.91,26.13,26.13,0,0,0,47,42.67,33.69,33.69,0,0,1,46.51,37.07Z"/><path class="cls-9" d="M28.32,104a2.46,2.46,0,0,1,.6-.43,2.47,2.47,0,0,0,.52,2.71c.28.28.33.45.23,1.68a6.11,6.11,0,0,0,7.22,7.23c1.24-.09,1.41,0,1.69.24s.32.45.22,1.68A6.11,6.11,0,0,0,46,124.37c1.23-.1,1.41-.05,1.68.22s.33.46.23,1.68a6.1,6.1,0,0,0,7.21,7.23c1.23-.1,1.41-.05,1.68.23a2.48,2.48,0,0,0,1.75.72,2.44,2.44,0,0,0,1.14-.29,2.44,2.44,0,0,1-2.27,1.5,2.45,2.45,0,0,1-1.74-.72c-.28-.28-.45-.33-1.68-.23a6.1,6.1,0,0,1-7.22-7.23c.1-1.23.05-1.4-.22-1.68s-.45-.32-1.68-.22a6.1,6.1,0,0,1-7.22-7.23c.1-1.23,0-1.41-.23-1.69s-.45-.32-1.68-.23a6.1,6.1,0,0,1-7.22-7.23c.1-1.23.05-1.41-.23-1.68A2.47,2.47,0,0,1,28.32,104Z"/><path class="cls-9" d="M13.56,66.78c1-2.13,3.11-2.37,4.4-2.52a7,7,0,0,0,1.16-.2,7.21,7.21,0,0,0-.62-1c-.75-1.06-2-2.84-1.05-5s3.11-2.37,4.39-2.52a6.18,6.18,0,0,0,1.17-.2,7.29,7.29,0,0,0-.63-1c-.75-1.06-2-2.83-1.05-5s3.11-2.37,4.4-2.52a7.2,7.2,0,0,0,1.16-.19,7.35,7.35,0,0,0-.63-1c-.75-1.06-2-2.83-1.05-4.95a2,2,0,0,1,3.4-.46,2,2,0,0,0-2.06,1.19c-.95,2.13.3,3.9,1,5a6.48,6.48,0,0,1,.63,1,7,7,0,0,1-1.16.19c-1.29.15-3.44.4-4.39,2.52s.3,3.89,1,4.95a6.48,6.48,0,0,1,.63,1,7,7,0,0,1-1.16.2c-1.29.15-3.44.39-4.39,2.52s.29,3.89,1,4.95a7.41,7.41,0,0,1,.63,1,7.34,7.34,0,0,1-1.17.19c-1.29.15-3.44.4-4.39,2.52a2,2,0,0,0,.27,2.06,1.89,1.89,0,0,1-.6-.15A2,2,0,0,1,13.56,66.78Z"/></g></g></svg>